<svg width="17" height="17" viewBox="0 0 17 17" fill="none" xmlns="http://www.w3.org/2000/svg">
<path d="M14.1805 2.125H2.81711C2.52863 2.12523 2.24642 2.20918 2.00473 2.36668C1.76304 2.52417 1.57226 2.74843 1.45554 3.01224C1.33883 3.27605 1.30119 3.56806 1.3472 3.85285C1.39322 4.13763 1.5209 4.40293 1.71476 4.61656L6.63945 10.0327V15.1406C6.6395 15.2405 6.66768 15.3383 6.72077 15.4229C6.77386 15.5074 6.8497 15.5753 6.93961 15.6187C7.01146 15.6542 7.09059 15.6724 7.1707 15.6719C7.29145 15.6718 7.40855 15.6306 7.50273 15.555L8.49883 14.7581L10.159 13.43C10.2211 13.3803 10.2713 13.3172 10.3057 13.2455C10.3402 13.1738 10.3582 13.0952 10.3582 13.0156V10.0327L15.2829 4.61656C15.4768 4.40293 15.6044 4.13763 15.6504 3.85285C15.6965 3.56806 15.6588 3.27605 15.5421 3.01224C15.4254 2.74843 15.2346 2.52417 14.9929 2.36668C14.7512 2.20918 14.469 2.12523 14.1805 2.125Z" fill="#6162FD"/>
</svg>
