<svg width="17" height="17" viewBox="0 0 17 17" fill="none" xmlns="http://www.w3.org/2000/svg">
<path d="M2.92573 0.998047C1.90176 0.998047 1.0625 1.83731 1.0625 2.85927C1.0625 3.88124 1.90176 4.7205 2.92373 4.7205C3.94569 4.7205 4.78495 3.88325 4.78495 2.86128C4.78495 1.83931 3.9477 0.998047 2.92573 0.998047ZM2.92573 6.58373C2.43225 6.58479 1.95924 6.78116 1.61011 7.12992C1.26097 7.47868 1.06409 7.95147 1.0625 8.44496C1.0625 9.46893 1.90176 10.3122 2.92373 10.3122C3.94569 10.3122 4.78495 9.46893 4.78495 8.44496C4.78337 7.95217 4.58704 7.47998 4.23877 7.13133C3.8905 6.78269 3.41852 6.58585 2.92573 6.58373ZM2.92573 12.1734C1.90176 12.1734 1.0625 13.0127 1.0625 14.0347C1.0625 15.0566 1.90176 15.8959 2.92373 15.8959C3.94569 15.8959 4.78495 15.0566 4.78495 14.0347C4.78495 13.0127 3.9477 12.1734 2.92573 12.1734ZM7.71232 0.998047C6.68834 0.998047 5.84908 1.83731 5.84908 2.85927C5.84908 3.88124 6.69035 4.7205 7.71232 4.7205H14.0991C15.1231 4.7205 15.9603 3.88325 15.9603 2.86128C15.9603 1.83931 15.1211 0.998047 14.0991 0.998047H7.71232ZM7.71232 6.85077C7.21883 6.85183 6.74583 7.0482 6.39669 7.39696C6.04755 7.74572 5.85067 8.21851 5.84908 8.712C5.84908 9.73597 6.69035 10.5732 7.71232 10.5732H14.0991C14.5923 10.5716 15.0647 10.375 15.4134 10.0263C15.7621 9.67762 15.9587 9.20513 15.9603 8.712C15.9587 8.21886 15.7621 7.74637 15.4134 7.39766C15.0647 7.04896 14.5923 6.85236 14.0991 6.85077H7.71232ZM7.71232 12.1734C7.21883 12.1745 6.74583 12.3709 6.39669 12.7196C6.04755 13.0684 5.85067 13.5412 5.84908 14.0347C5.84908 15.0586 6.69035 15.8959 7.71232 15.8959H14.0991C14.5923 15.8943 15.0647 15.6977 15.4134 15.349C15.7621 15.0003 15.9587 14.5278 15.9603 14.0347C15.9587 13.5415 15.7621 13.069 15.4134 12.7203C15.0647 12.3716 14.5923 12.175 14.0991 12.1734H7.71232Z" fill="#6162FD"/>
</svg>
