<svg width="21" height="21" viewBox="0 0 21 21" fill="none" xmlns="http://www.w3.org/2000/svg">
<path d="M10.6135 14.5725C8.37451 14.5725 6.5123 12.7597 6.5123 10.4744C6.5123 8.42073 8.02554 6.71912 9.99583 6.42265V2.83721C6.0398 3.14912 2.94848 6.45971 2.94848 10.4713C2.94848 13.5327 4.73719 16.1623 7.31463 17.3939L7.24669 17.6156C7.18198 17.8323 7.04884 18.0223 6.86719 18.157C6.68554 18.2917 6.46515 18.364 6.239 18.363H4.72978C4.64787 18.363 4.56932 18.3955 4.5114 18.4535C4.45349 18.5114 4.42095 18.5899 4.42095 18.6718C4.42095 18.7537 4.45349 18.8323 4.5114 18.8902C4.56932 18.9481 4.64787 18.9806 4.72978 18.9806H6.239C6.59778 18.9822 6.94743 18.8676 7.23568 18.654C7.52392 18.4403 7.73525 18.1391 7.83808 17.7954L7.88626 17.6373C8.97103 18.0516 10.1361 18.2128 11.2926 18.1085V18.0776L10.6904 14.5725H10.6135ZM14.0352 8.22L17.0123 6.26206H17.0154C16.2721 5.13544 15.2449 4.22469 14.0374 3.62162L14.0646 3.53268C14.1294 3.31598 14.2626 3.1261 14.4443 2.99143C14.626 2.85676 14.8464 2.78456 15.0726 2.78563H16.5818C16.6637 2.78563 16.7423 2.7531 16.8002 2.69518C16.8581 2.63726 16.8906 2.55871 16.8906 2.47681C16.8906 2.3949 16.8581 2.31635 16.8002 2.25844C16.7423 2.20052 16.6637 2.16799 16.5818 2.16799H15.0726C14.7138 2.16638 14.3642 2.28094 14.076 2.49453C13.7877 2.70812 13.5764 3.00926 13.4735 3.35294L13.4704 3.36313C12.5625 2.99693 11.5925 2.80894 10.6135 2.80941V6.37632C12.0844 6.37632 13.3466 7.15579 14.0352 8.22ZM2.91883 17.6759H1.27497C0.997952 17.6759 0.773438 17.9004 0.773438 18.1774V19.8247C0.773438 20.1017 0.997952 20.3262 1.27497 20.3262H2.91883C3.19616 20.3262 3.42036 20.1017 3.42036 19.8247V18.1771C3.42036 17.9001 3.19616 17.6759 2.91883 17.6759ZM16.3761 18.3627H14.8669C14.6407 18.3636 14.4204 18.2913 14.2386 18.1567C14.0569 18.022 13.9236 17.8323 13.8586 17.6156L13.7894 17.3887C16.5117 16.1336 17.9894 13.7773 18.2352 11.2588V11.2434C18.3943 9.80951 18.1031 8.178 17.3335 6.79323L14.3348 8.76044V8.76353C14.5985 9.2036 14.8635 10.4151 14.6066 11.3916C14.248 13.0559 12.795 14.302 11.3083 14.5138C11.309 14.5185 11.9105 18.0236 11.9105 18.0282C12.3547 17.9259 12.7913 17.793 13.2172 17.6305L13.2675 17.796C13.371 18.1394 13.5825 18.4401 13.8707 18.6535C14.1589 18.8669 14.5083 18.9815 14.8669 18.9803H16.3758C16.4577 18.9803 16.5363 18.9478 16.5942 18.8899C16.6521 18.832 16.6846 18.7534 16.6846 18.6715C16.6846 18.5896 16.6521 18.5111 16.5942 18.4531C16.5363 18.3952 16.458 18.3627 16.3761 18.3627ZM19.8309 17.6759H18.1868C17.9097 17.6759 17.6852 17.9004 17.6852 18.1774V19.8247C17.6852 20.1017 17.9097 20.3262 18.1868 20.3262H19.8309C20.1076 20.3262 20.3325 20.1017 20.3325 19.8247V18.1771C20.3325 17.9001 20.1076 17.6759 19.8309 17.6759Z" fill="#6162FD"/>
</svg>
