<svg width="15" height="15" viewBox="0 0 15 15" fill="none" xmlns="http://www.w3.org/2000/svg">
<g clip-path="url(#clip0_2094_9451)">
<path d="M4.21875 8.4375H1.40625C1.14737 8.4375 0.9375 8.64737 0.9375 8.90625V13.5938C0.9375 13.8526 1.14737 14.0625 1.40625 14.0625H4.21875C4.47763 14.0625 4.6875 13.8526 4.6875 13.5938V8.90625C4.6875 8.64737 4.47763 8.4375 4.21875 8.4375Z" fill="#6162FD"/>
<path d="M13.5938 4.6875H10.7812C10.5224 4.6875 10.3125 4.89737 10.3125 5.15625V13.5938C10.3125 13.8526 10.5224 14.0625 10.7812 14.0625H13.5938C13.8526 14.0625 14.0625 13.8526 14.0625 13.5938V5.15625C14.0625 4.89737 13.8526 4.6875 13.5938 4.6875Z" fill="#6162FD"/>
<path d="M8.90625 0.9375H6.09375C5.83487 0.9375 5.625 1.14737 5.625 1.40625V13.5938C5.625 13.8526 5.83487 14.0625 6.09375 14.0625H8.90625C9.16513 14.0625 9.375 13.8526 9.375 13.5938V1.40625C9.375 1.14737 9.16513 0.9375 8.90625 0.9375Z" fill="#6162FD"/>
</g>
<defs>
<clipPath id="clip0_2094_9451">
<rect width="15" height="15" fill="white"/>
</clipPath>
</defs>
</svg>
