<svg width="15" height="15" viewBox="0 0 15 15" fill="none" xmlns="http://www.w3.org/2000/svg">
<g clip-path="url(#clip0_2094_9466)">
<path d="M0.416719 9.16672H2.08328C2.31336 9.16672 2.5 9.35316 2.5 9.58328V13.75C2.5 13.9801 2.3134 14.1667 2.08328 14.1667H0.416719C0.186641 14.1667 0 13.9801 0 13.75V9.58328C0 9.3532 0.186602 9.16672 0.416719 9.16672ZM4.58328 5.83328H6.25C6.48008 5.83328 6.66672 6.01988 6.66672 6.25V13.75C6.66672 13.9801 6.48012 14.1667 6.25 14.1667H4.58328C4.3532 14.1667 4.16672 13.9801 4.16672 13.75V6.25C4.16672 6.01992 4.35316 5.83328 4.58328 5.83328ZM8.75 7.5H10.4167C10.6468 7.5 10.8333 7.6866 10.8333 7.91672V13.75C10.8333 13.9801 10.6468 14.1667 10.4167 14.1667H8.75C8.51992 14.1667 8.33328 13.9801 8.33328 13.75V7.91672C8.33328 7.68664 8.51988 7.5 8.75 7.5ZM12.9167 5H14.5833C14.8134 5 15 5.1866 15 5.41672V13.75C15 13.9801 14.8134 14.1667 14.5833 14.1667H12.9167C12.6866 14.1667 12.5 13.9801 12.5 13.75V5.41672C12.5 5.18664 12.6866 5 12.9167 5Z" fill="#6162FD"/>
<path d="M13.75 0C13.06 0.00078125 12.5008 0.56 12.5 1.25C12.5017 1.38609 12.5258 1.52102 12.5714 1.64918L10.4855 2.88906C10.3506 2.74594 10.1835 2.63699 9.9981 2.57123C9.8127 2.50547 9.61431 2.48479 9.41933 2.5109C9.22435 2.53701 9.03838 2.60916 8.87681 2.72137C8.71524 2.83359 8.5827 2.98266 8.49016 3.15625L6.65039 2.24504C6.65932 2.19145 6.66477 2.13753 6.66672 2.08328C6.66719 1.83588 6.59424 1.5939 6.4571 1.38799C6.31996 1.18208 6.12481 1.02149 5.89634 0.926566C5.66788 0.831639 5.41638 0.806642 5.1737 0.85474C4.93102 0.902838 4.70807 1.02187 4.53309 1.19676C4.35806 1.37161 4.23887 1.59448 4.19062 1.83713C4.14237 2.07978 4.16724 2.3313 4.26207 2.5598L1.87562 4.34082C1.68634 4.22804 1.47034 4.16793 1.25 4.16672C0.559687 4.16672 0 4.72625 0 5.41672C0 6.10703 0.559687 6.66672 1.25 6.66672C1.94031 6.66672 2.5 6.10703 2.5 5.41672C2.4989 5.26637 2.47051 5.11747 2.41621 4.97727L4.82652 3.17844C5.29801 3.44133 5.88609 3.36426 6.27379 2.98859L8.36594 4.02481C8.50539 4.64602 9.08996 5.06285 9.72273 4.99238C10.3555 4.92191 10.8341 4.38676 10.8333 3.75C10.8333 3.71824 10.8263 3.68836 10.824 3.65723L13.0927 2.30852C13.2894 2.43286 13.5172 2.49922 13.75 2.5C14.4403 2.5 15 1.94031 15 1.25C15 0.559687 14.4403 0 13.75 0Z" fill="#6162FD"/>
</g>
<defs>
<clipPath id="clip0_2094_9466">
<rect width="15" height="15" fill="white"/>
</clipPath>
</defs>
</svg>
