<svg width="16" height="16" viewBox="0 0 16 16" fill="none" xmlns="http://www.w3.org/2000/svg">
<g clip-path="url(#clip0_2094_9469)">
<path d="M12.8041 8.66085H7.33316V3.19629C7.33316 3.03053 7.26731 2.87156 7.1501 2.75435C7.03289 2.63714 6.87392 2.57129 6.70816 2.57129H6.70684C4.92659 2.57504 3.24563 3.2781 1.97356 4.55098C0.700906 5.82451 0 7.50604 0 9.28585C0 11.0657 0.701437 12.7517 1.97509 14.0253C3.24875 15.299 4.93194 16.0004 6.71456 16.0004C8.49719 16.0004 10.1803 15.299 11.454 14.0253C12.7277 12.7517 13.4291 11.0685 13.4291 9.28585C13.4291 8.94066 13.1493 8.66085 12.8041 8.66085Z" fill="#6162FD"/>
<path d="M14.02 1.97356C12.7465 0.700906 11.065 0 9.28516 0C9.1194 0 8.96042 0.065848 8.84321 0.183058C8.726 0.300268 8.66016 0.45924 8.66016 0.625V6.70816C8.66016 7.05334 8.94 7.33316 9.28519 7.33316H15.3747C15.4569 7.33316 15.5383 7.31695 15.6142 7.28546C15.6901 7.25396 15.7591 7.20781 15.8171 7.14963C15.8752 7.09146 15.9212 7.0224 15.9525 6.94642C15.9839 6.87044 15.9999 6.78903 15.9997 6.70684C15.996 4.92659 15.2929 3.24562 14.02 1.97356Z" fill="#6162FD"/>
</g>
<defs>
<clipPath id="clip0_2094_9469">
<rect width="16" height="16" fill="white"/>
</clipPath>
</defs>
</svg>
