<svg width="16" height="16" viewBox="0 0 16 16" fill="none" xmlns="http://www.w3.org/2000/svg">
<g clip-path="url(#clip0_2094_9460)">
<path d="M3.56462 10.2835H1.76375C1.11431 10.2835 0.585938 10.8119 0.585938 11.4614V15.2767C0.585938 15.6755 0.910437 16 1.30925 16H4.01906C4.41791 16 4.74241 15.6755 4.74241 15.2767V11.4614C4.74241 10.8119 4.21406 10.2835 3.56462 10.2835ZM8.85069 7.96629H7.04981C6.40037 7.96629 5.872 8.49467 5.872 9.14408V15.2767C5.872 15.6755 6.1965 16 6.59534 16H9.30516C9.704 16 10.0285 15.6755 10.0285 15.2767V9.14411C10.0285 8.49464 9.50012 7.96629 8.85069 7.96629ZM14.2352 5.32601H12.4344C11.7849 5.32601 11.2566 5.85439 11.2566 6.50379V15.2767C11.2566 15.6755 11.581 16 11.9799 16H14.6897C15.0885 16 15.413 15.6755 15.413 15.2767V6.50379C15.413 5.85439 14.8847 5.32601 14.2352 5.32601ZM12.8014 0.445764C12.581 0.134389 12.2228 -0.0302674 11.8429 0.00460759L8.44159 0.319295C8.06178 0.354451 7.73981 0.582264 7.58037 0.928733C7.42094 1.2752 7.45722 1.66798 7.67753 1.97936L7.86741 2.24767L3.64575 5.16483L3.64144 5.16786C3.34187 5.37983 3.14281 5.69579 3.08091 6.05751C3.019 6.41923 3.10162 6.78339 3.31359 7.08295C3.52556 7.38251 3.84153 7.58158 4.20325 7.64351C4.28163 7.65692 4.36009 7.66358 4.43803 7.66358C4.71878 7.66358 4.99225 7.57745 5.22634 7.41254L9.45475 4.49079L9.65075 4.7677C9.8515 5.05142 10.1667 5.21351 10.5085 5.21351C10.5418 5.21351 10.5754 5.21196 10.6092 5.20886C10.989 5.1737 11.311 4.94586 11.4704 4.59936L12.8986 1.49639C13.058 1.14986 13.0217 0.757108 12.8014 0.445764Z" fill="#6162FD"/>
</g>
<defs>
<clipPath id="clip0_2094_9460">
<rect width="16" height="16" fill="white"/>
</clipPath>
</defs>
</svg>
