<svg width="17" height="17" viewBox="0 0 17 17" fill="none" xmlns="http://www.w3.org/2000/svg">
<path d="M0 8.37158V15.3774C0 15.6525 0.222992 15.8755 0.498047 15.8755H9.12671V7.87354H0.498047C0.222992 7.87354 0 8.09653 0 8.37158ZM6.74854 9.625C6.74854 9.90005 6.52554 10.123 6.25049 10.123H2.87622C2.60117 10.123 2.37817 9.90005 2.37817 9.625C2.37817 9.34995 2.60117 9.12695 2.87622 9.12695H6.25049C6.52554 9.12695 6.74854 9.34995 6.74854 9.625ZM10.1228 10.123V15.8755H16.502C16.777 15.8755 17 15.6525 17 15.3774V10.6211C17 10.346 16.777 10.123 16.502 10.123H10.1228ZM14.8098 12.3726H12.313C12.0379 12.3726 11.8149 12.1496 11.8149 11.8745C11.8149 11.5995 12.0379 11.3765 12.313 11.3765H14.8098C15.0849 11.3765 15.3079 11.5995 15.3079 11.8745C15.3079 12.1496 15.0849 12.3726 14.8098 12.3726ZM3.37427 6.87744H9.12671V1.62305C9.12671 1.34799 8.90372 1.125 8.62866 1.125H3.87231C3.59726 1.125 3.37427 1.34799 3.37427 1.62305V6.87744ZM5.12573 2.37842H7.37524C7.6503 2.37842 7.87329 2.60141 7.87329 2.87646C7.87329 3.15152 7.6503 3.37451 7.37524 3.37451H5.12573C4.85068 3.37451 4.62769 3.15152 4.62769 2.87646C4.62769 2.60141 4.85068 2.37842 5.12573 2.37842ZM15.3772 3.37451H10.6208C10.3458 3.37451 10.1228 3.5975 10.1228 3.87256V9.12695H15.8752V3.87256C15.8752 3.5975 15.6523 3.37451 15.3772 3.37451ZM14.1238 5.62402H11.8743C11.5992 5.62402 11.3762 5.40103 11.3762 5.12598C11.3762 4.85092 11.5992 4.62793 11.8743 4.62793H14.1238C14.3988 4.62793 14.6218 4.85092 14.6218 5.12598C14.6218 5.40103 14.3988 5.62402 14.1238 5.62402Z" fill="#6162FD"/>
</svg>
