<svg width="18" height="18" viewBox="0 0 18 18" fill="none" xmlns="http://www.w3.org/2000/svg">
<g clip-path="url(#clip0_2094_9474)">
<path d="M12.09 1.44684L3.92175 5.62884L0.675 4.03134L8.69925 0.0690875C8.7902 0.0241232 8.89029 0.000732422 8.99175 0.000732422C9.09321 0.000732422 9.1933 0.0241232 9.28425 0.0690875L12.09 1.44684ZM17.316 4.03134L9.0045 8.14884L5.892 6.61509L5.442 6.38634L13.6193 2.20509L14.0693 2.43309L17.316 4.03134ZM8.3385 9.33534L8.3295 18.0001L0.369 13.8458C0.258018 13.7866 0.165128 13.6984 0.100167 13.5907C0.0352071 13.4829 0.000595958 13.3596 0 13.2338L0 5.21784L3.3735 6.87984V9.80184C3.3735 10.1761 3.6795 10.4866 4.0485 10.4866C4.4175 10.4866 4.7235 10.1761 4.7235 9.80184V7.55559L5.1735 7.77459L8.3385 9.33534ZM17.991 5.22684L9.6885 9.32634L9.6795 17.9911L18 13.6463L17.991 5.22684Z" fill="#6162FD"/>
</g>
<defs>
<clipPath id="clip0_2094_9474">
<rect width="18" height="18" fill="white"/>
</clipPath>
</defs>
</svg>
