<svg width="15" height="15" viewBox="0 0 15 15" fill="none" xmlns="http://www.w3.org/2000/svg">
<g clip-path="url(#clip0_2094_9455)">
<path d="M4.99975 5.00023C7.8613 5.00023 9.99949 3.869 9.99949 2.85751C9.99949 1.84611 7.86126 0.714844 4.99975 0.714844C2.13824 0.714844 4.76243e-05 1.84611 4.76243e-05 2.85751C4.76243e-05 3.869 2.13819 5.00023 4.99975 5.00023ZM4.99975 13.5714C5.41741 13.5714 5.81941 13.5471 6.20179 13.5028C5.87698 13.0856 5.6116 12.6254 5.41322 12.1353C5.27602 12.1399 5.13833 12.1431 4.9997 12.1431C3.36461 12.1431 1.81615 11.8191 0.63969 11.2308C0.408045 11.115 0.194879 10.9906 4.76243e-05 10.8588V11.4287C4.76243e-05 12.4401 2.13819 13.5714 4.99975 13.5714ZM4.99975 10.7143C5.01441 10.7143 5.02884 10.7141 5.04347 10.7141C5.01381 10.477 4.99892 10.2384 4.99889 9.99954C4.99889 9.75771 5.01413 9.51939 5.04347 9.28546C5.02884 9.28546 5.01437 9.28599 4.99975 9.28599C3.36466 9.28599 1.81625 8.962 0.639738 8.37374C0.408045 8.25792 0.194831 8.13348 0 8.0018V8.57162C4.76243e-05 9.58307 2.13819 10.7143 4.99975 10.7143ZM4.99975 7.85721C5.14144 7.85718 5.28132 7.85441 5.41936 7.84892C5.63969 7.3089 5.94125 6.80572 6.31361 6.3568C5.8773 6.40486 5.43869 6.42895 4.99975 6.42896C3.36466 6.42896 1.81625 6.10497 0.639738 5.51671C0.408045 5.40084 0.194831 5.27645 0 5.14472V5.71459C4.76243e-05 6.72604 2.13819 7.85721 4.99975 7.85721ZM7.14284 7.6318C6.82824 8.10419 6.61114 8.63466 6.50429 9.19207C6.45329 9.4582 6.42763 9.72857 6.42767 9.99954C6.42767 10.207 6.44281 10.4111 6.47143 10.6108C6.5404 11.0919 6.69133 11.5576 6.91767 11.9878C7.15017 12.4295 7.45756 12.8275 7.82616 13.1641C8.58853 13.8604 9.60245 14.2857 10.7139 14.2857C13.0773 14.2857 15 12.3629 15 9.99954C15 7.63609 13.0773 5.71335 10.7139 5.71335C10.4696 5.71335 10.2301 5.73421 9.99683 5.77364C8.80869 5.97457 7.78534 6.66603 7.14284 7.6318Z" fill="#6162FD"/>
<path d="M4.99975 5.00022C7.8613 5.00022 9.99949 3.869 9.99949 2.85751C9.99949 1.84611 7.86125 0.714844 4.99975 0.714844C2.13824 0.714844 4.76243e-05 1.84611 4.76243e-05 2.85751C4.76243e-05 3.869 2.13819 5.00022 4.99975 5.00022ZM4.99975 13.5714C5.41741 13.5714 5.81941 13.5471 6.20179 13.5028C5.87698 13.0856 5.6116 12.6254 5.41322 12.1353C5.27602 12.1399 5.13833 12.1431 4.9997 12.1431C3.36461 12.1431 1.81615 11.8191 0.63969 11.2308C0.408045 11.115 0.194879 10.9906 4.76243e-05 10.8588V11.4287C4.76243e-05 12.4401 2.13819 13.5714 4.99975 13.5714ZM4.99975 10.7143C5.01441 10.7143 5.02884 10.7141 5.04347 10.7141C5.01381 10.477 4.99892 10.2384 4.99889 9.99954C4.99889 9.75771 5.01413 9.51939 5.04347 9.28546C5.02884 9.28546 5.01437 9.28599 4.99975 9.28599C3.36466 9.28599 1.81625 8.962 0.639738 8.37374C0.408045 8.25792 0.194831 8.13348 0 8.0018V8.57162C4.76243e-05 9.58307 2.13819 10.7143 4.99975 10.7143ZM4.99975 7.85721C5.14144 7.85718 5.28132 7.85441 5.41936 7.84892C5.63969 7.3089 5.94125 6.80572 6.31361 6.3568C5.8773 6.40486 5.43869 6.42895 4.99975 6.42896C3.36466 6.42896 1.81625 6.10497 0.639738 5.51671C0.408045 5.40084 0.194831 5.27645 0 5.14472V5.71459C4.76243e-05 6.72604 2.13819 7.85721 4.99975 7.85721Z" fill="#6162FD"/>
</g>
<defs>
<clipPath id="clip0_2094_9455">
<rect width="15" height="15" fill="white"/>
</clipPath>
</defs>
</svg>
