<svg width="38" height="38" viewBox="0 0 38 38" fill="none" xmlns="http://www.w3.org/2000/svg">
<rect width="38" height="38" rx="5" fill="#6162FD"/>
<path d="M11 25C10.7167 25 10.4793 24.904 10.288 24.712C10.0967 24.52 10.0007 24.2827 10 24C9.99934 23.7173 10.0953 23.48 10.288 23.288C10.4807 23.096 10.718 23 11 23H27C27.2833 23 27.521 23.096 27.713 23.288C27.905 23.48 28.0007 23.7173 28 24C27.9993 24.2827 27.9033 24.5203 27.712 24.713C27.5207 24.9057 27.2833 25.0013 27 25H11ZM11 20C10.7167 20 10.4793 19.904 10.288 19.712C10.0967 19.52 10.0007 19.2827 10 19C9.99934 18.7173 10.0953 18.48 10.288 18.288C10.4807 18.096 10.718 18 11 18H27C27.2833 18 27.521 18.096 27.713 18.288C27.905 18.48 28.0007 18.7173 28 19C27.9993 19.2827 27.9033 19.5203 27.712 19.713C27.5207 19.9057 27.2833 20.0013 27 20H11ZM11 15C10.7167 15 10.4793 14.904 10.288 14.712C10.0967 14.52 10.0007 14.2827 10 14C9.99934 13.7173 10.0953 13.48 10.288 13.288C10.4807 13.096 10.718 13 11 13H27C27.2833 13 27.521 13.096 27.713 13.288C27.905 13.48 28.0007 13.7173 28 14C27.9993 14.2827 27.9033 14.5203 27.712 14.713C27.5207 14.9057 27.2833 15.0013 27 15H11Z" fill="white"/>
</svg>
