<svg width="1072" height="863" viewBox="0 0 1072 863" fill="none" xmlns="http://www.w3.org/2000/svg">
<path opacity="0.04" d="M666 392.5C773.5 385 916.5 182 736.5 36" stroke="white"/>
<path opacity="0.3" d="M737.681 37.5631C737.879 37.2852 738.265 37.2208 738.543 37.4199C770.857 60.6275 795.49 92.9791 809.263 130.313C823.108 167.841 825.339 208.667 815.667 247.48C805.994 286.293 784.866 321.297 755.03 347.94C725.348 374.445 688.415 391.454 648.989 396.784C648.65 396.83 648.34 396.592 648.295 396.253V396.253C648.25 395.915 648.489 395.605 648.827 395.559C688.007 390.261 724.71 373.358 754.207 347.018C783.858 320.541 804.855 285.753 814.467 247.181C824.08 208.609 821.862 168.036 808.103 130.741C794.416 93.6397 769.937 61.4896 737.825 38.4262C737.548 38.2271 737.483 37.841 737.681 37.5631V37.5631Z" fill="#D9D9D9"/>
<path d="M721.639 32.145C721.975 30.8167 723.325 30.0118 724.651 30.3555C804.724 51.1078 876.965 94.9098 932.4 156.353C988.389 218.411 1024.72 295.678 1036.79 378.383C1048.87 461.089 1036.15 545.517 1000.24 620.992C964.687 695.721 907.985 758.349 837.188 801.129C836.016 801.838 834.491 801.453 833.79 800.276V800.276C833.088 799.099 833.474 797.576 834.647 796.867C904.601 754.59 960.628 692.703 995.759 618.861C1031.25 544.272 1043.82 460.834 1031.88 379.1C1019.95 297.366 984.047 221.006 928.716 159.677C873.939 98.962 802.556 55.6774 723.435 35.1658C722.108 34.822 721.303 33.4733 721.639 32.145V32.145Z" fill="#6162FD"/>
<path opacity="0.6" d="M489.537 28.0121C489.476 27.7464 489.211 27.5805 488.946 27.6417C405.968 46.7716 330.702 90.524 273.013 153.17C215.213 215.938 177.768 294.731 165.602 379.186C153.437 463.64 167.122 549.799 204.857 626.328C242.518 702.709 302.377 765.926 376.582 807.697C376.819 807.831 377.12 807.746 377.254 807.509V807.509C377.387 807.271 377.302 806.97 377.065 806.836C303.034 765.163 243.316 702.094 205.742 625.891C168.095 549.541 154.442 463.584 166.579 379.326C178.716 295.069 216.074 216.459 273.739 153.839C331.293 91.3392 406.383 47.6891 489.166 28.6038C489.432 28.5425 489.598 28.2777 489.537 28.0121V28.0121Z" fill="url(#paint0_linear_429_2685)"/>
<path opacity="0.6" d="M489.232 28.7704C489.149 28.5329 488.889 28.4078 488.651 28.4913C434.921 47.3839 387.905 81.6161 353.424 126.956C318.852 172.418 298.407 227.04 294.634 284.029C290.861 341.018 303.926 397.859 332.204 447.481C360.406 496.971 402.499 537.103 453.27 562.914C453.494 563.028 453.768 562.938 453.882 562.714V562.714C453.996 562.489 453.906 562.215 453.681 562.101C403.07 536.371 361.109 496.365 332.995 447.03C304.806 397.563 291.782 340.9 295.543 284.089C299.305 227.278 319.685 172.827 354.149 127.508C388.522 82.3099 435.39 48.1849 488.952 29.3513C489.19 29.2679 489.315 29.0079 489.232 28.7704V28.7704Z" fill="url(#paint1_linear_429_2685)"/>
<path d="M726.234 35.7154C726.332 35.4839 726.6 35.3763 726.831 35.4753C778.395 57.5339 822.498 94.012 853.837 140.531C885.261 187.176 902.508 241.921 903.496 298.155C904.484 354.389 889.17 409.706 859.403 457.426C829.717 505.017 786.923 543.021 736.166 566.877C735.938 566.984 735.667 566.886 735.56 566.658V566.658C735.453 566.43 735.552 566.159 735.779 566.052C786.378 542.271 829.037 504.385 858.63 456.944C888.304 409.373 903.57 354.229 902.585 298.171C901.6 242.113 884.407 187.539 853.081 141.04C821.84 94.667 777.876 58.3033 726.474 36.3135C726.243 36.2146 726.135 35.9469 726.234 35.7154V35.7154Z" fill="#6162FD"/>
<path opacity="0.6" d="M490.115 28.0844C489.996 27.8832 489.737 27.8166 489.536 27.9359C455.772 47.986 428.681 77.5662 411.668 112.965C394.595 148.491 388.439 188.283 393.98 227.307C399.522 266.332 416.511 302.836 442.799 332.206C468.993 361.47 503.247 382.339 541.258 392.198C541.484 392.256 541.715 392.12 541.773 391.894V391.894C541.832 391.668 541.695 391.437 541.469 391.378C503.62 381.561 469.512 360.781 443.429 331.641C417.253 302.397 400.336 266.047 394.818 227.188C389.301 188.329 395.43 148.707 412.431 113.332C429.371 78.0836 456.346 48.6294 489.966 28.6644C490.167 28.5451 490.234 28.2855 490.115 28.0844V28.0844Z" fill="url(#paint2_linear_429_2685)"/>
<line x1="607.511" y1="47" x2="607.511" y2="345" stroke="url(#paint3_linear_429_2685)" stroke-width="1.022"/>
<line x1="902" y1="397.5" x2="1072" y2="397.5" stroke="white" stroke-opacity="0.18"/>
<line x1="608" y1="593.5" x2="1072" y2="593.5" stroke="white" stroke-opacity="0.18"/>
<line x1="608" y1="780.5" x2="1072" y2="780.5" stroke="white" stroke-opacity="0.18"/>
<line x1="916" y1="265.5" x2="1072" y2="265.5" stroke="white" stroke-opacity="0.18"/>
<line x1="-4.37114e-08" y1="392.5" x2="527" y2="392.5" stroke="white" stroke-opacity="0.18"/>
<line x1="61" y1="557.5" x2="165" y2="557.5" stroke="white" stroke-opacity="0.18"/>
<line x1="44" y1="691.5" x2="230" y2="691.5" stroke="white" stroke-opacity="0.18"/>
<line x1="819" y1="118.5" x2="1072" y2="118.5" stroke="white" stroke-opacity="0.18"/>
<line x1="74" y1="118.5" x2="394" y2="118.5" stroke="white" stroke-opacity="0.18"/>
<line x1="74" y1="257.5" x2="284" y2="257.5" stroke="white" stroke-opacity="0.18"/>
<circle cx="901" cy="265" r="5" fill="#6162FD"/>
<circle cx="804" cy="119" r="5" fill="#6162FD"/>
<circle cx="409" cy="119" r="5" fill="#6162FD"/>
<circle cx="299" cy="258" r="5" fill="#6162FD"/>
<circle cx="540" cy="392" r="5" fill="#6162FD"/>
<circle cx="180" cy="558" r="5" fill="#6162FD"/>
<circle cx="245" cy="691" r="5" fill="#6162FD"/>
<circle cx="887" cy="397" r="5" fill="#6162FD"/>
<circle cx="606.5" cy="150.5" r="25.5" fill="white"/>
<circle cx="407.5" cy="285.5" r="25.5" fill="white"/>
<circle cx="799.5" cy="285.5" r="25.5" fill="white"/>
<g clip-path="url(#clip0_429_2685)">
<path d="M809.342 288.411L807.319 286.83C807.345 286.586 807.367 286.301 807.367 285.999C807.367 285.698 807.346 285.412 807.319 285.169L809.343 283.586C809.719 283.289 809.822 282.762 809.583 282.323L807.48 278.685C807.255 278.274 806.763 278.063 806.263 278.248L803.877 279.206C803.42 278.876 802.94 278.597 802.445 278.374L802.082 275.843C802.022 275.363 801.604 275 801.11 275H796.893C796.399 275 795.982 275.363 795.923 275.836L795.559 278.376C795.079 278.592 794.607 278.867 794.129 279.207L791.737 278.247C791.289 278.074 790.752 278.268 790.53 278.677L788.424 282.32C788.176 282.739 788.278 283.285 788.662 283.589L790.685 285.17C790.653 285.479 790.637 285.748 790.637 286C790.637 286.252 790.653 286.521 790.685 286.831L788.661 288.413C788.285 288.711 788.183 289.238 788.422 289.676L790.525 293.314C790.75 293.724 791.237 293.936 791.742 293.751L794.128 292.793C794.584 293.123 795.064 293.401 795.559 293.625L795.922 296.155C795.982 296.637 796.399 297 796.894 297H801.111C801.605 297 802.023 296.637 802.082 296.164L802.445 293.625C802.926 293.408 803.397 293.133 803.875 292.792L806.268 293.753C806.382 293.798 806.504 293.821 806.627 293.821C806.983 293.821 807.31 293.627 807.475 293.324L809.587 289.667C809.822 289.238 809.719 288.711 809.342 288.411ZM799.002 289.667C796.979 289.667 795.335 288.022 795.335 286C795.335 283.978 796.979 282.333 799.002 282.333C801.024 282.333 802.668 283.978 802.668 286C802.668 288.022 801.024 289.667 799.002 289.667Z" fill="#0B0B0B"/>
</g>
<g clip-path="url(#clip1_429_2685)">
<path d="M603.333 147.334C607.53 147.334 610.666 145.675 610.666 144.191C610.666 142.708 607.53 141.049 603.333 141.049C599.136 141.049 596 142.708 596 144.191C596 145.675 599.136 147.334 603.333 147.334ZM603.333 159.905C603.946 159.905 604.535 159.869 605.096 159.805C604.62 159.193 604.23 158.518 603.939 157.799C603.738 157.806 603.536 157.81 603.333 157.81C600.935 157.81 598.664 157.335 596.938 156.472C596.598 156.302 596.286 156.12 596 155.927V156.762C596 158.246 599.136 159.905 603.333 159.905ZM603.333 155.715C603.354 155.715 603.376 155.714 603.397 155.714C603.354 155.367 603.332 155.017 603.332 154.666C603.332 154.312 603.354 153.962 603.397 153.619C603.376 153.619 603.354 153.62 603.333 153.62C600.935 153.62 598.664 153.145 596.938 152.282C596.598 152.112 596.286 151.929 596 151.736V152.572C596 154.056 599.136 155.715 603.333 155.715ZM603.333 151.524C603.541 151.524 603.746 151.52 603.948 151.512C604.272 150.72 604.714 149.982 605.26 149.324C604.62 149.394 603.977 149.43 603.333 149.43C600.935 149.43 598.664 148.954 596.938 148.092C596.598 147.922 596.286 147.739 596 147.546V148.382C596 149.865 599.136 151.524 603.333 151.524ZM606.476 151.194C606.015 151.887 605.696 152.665 605.54 153.482C605.465 153.872 605.427 154.269 605.427 154.666C605.427 154.971 605.449 155.27 605.491 155.563C605.593 156.268 605.814 156.952 606.146 157.582C606.487 158.23 606.938 158.814 607.478 159.308C608.597 160.329 610.084 160.953 611.714 160.953C615.18 160.953 618 158.133 618 154.666C618 151.2 615.18 148.38 611.714 148.38C611.355 148.38 611.004 148.411 610.662 148.468C608.919 148.763 607.419 149.777 606.476 151.194Z" fill="#9B9B9B"/>
<path d="M603.333 147.332C607.53 147.332 610.666 145.673 610.666 144.189C610.666 142.706 607.53 141.047 603.333 141.047C599.136 141.047 596 142.706 596 144.189C596 145.673 599.136 147.332 603.333 147.332ZM603.333 159.903C603.946 159.903 604.535 159.867 605.096 159.803C604.62 159.191 604.23 158.516 603.939 157.797C603.738 157.804 603.536 157.808 603.333 157.808C600.935 157.808 598.664 157.333 596.938 156.47C596.598 156.3 596.286 156.118 596 155.925V156.761C596 158.244 599.136 159.903 603.333 159.903ZM603.333 155.713C603.354 155.713 603.376 155.712 603.397 155.712C603.354 155.365 603.332 155.015 603.332 154.664C603.332 154.31 603.354 153.96 603.397 153.617C603.376 153.617 603.354 153.618 603.333 153.618C600.935 153.618 598.664 153.143 596.938 152.28C596.598 152.11 596.286 151.928 596 151.734V152.57C596 154.054 599.136 155.713 603.333 155.713ZM603.333 151.522C603.541 151.522 603.746 151.518 603.948 151.51C604.272 150.718 604.714 149.98 605.26 149.322C604.62 149.392 603.977 149.428 603.333 149.428C600.935 149.428 598.664 148.952 596.938 148.09C596.598 147.92 596.286 147.737 596 147.544V148.38C596 149.863 599.136 151.522 603.333 151.522Z" fill="#121220"/>
</g>
<path d="M402.625 287.25H398.875C398.53 287.25 398.25 287.53 398.25 287.875V294.125C398.25 294.47 398.53 294.75 398.875 294.75H402.625C402.97 294.75 403.25 294.47 403.25 294.125V287.875C403.25 287.53 402.97 287.25 402.625 287.25Z" fill="#0E0E14"/>
<path d="M415.125 282.25H411.375C411.03 282.25 410.75 282.53 410.75 282.875V294.125C410.75 294.47 411.03 294.75 411.375 294.75H415.125C415.47 294.75 415.75 294.47 415.75 294.125V282.875C415.75 282.53 415.47 282.25 415.125 282.25Z" fill="#0E0E14"/>
<path d="M408.875 277.25H405.125C404.78 277.25 404.5 277.53 404.5 277.875V294.125C404.5 294.47 404.78 294.75 405.125 294.75H408.875C409.22 294.75 409.5 294.47 409.5 294.125V277.875C409.5 277.53 409.22 277.25 408.875 277.25Z" fill="#9B9B9B"/>
<defs>
<linearGradient id="paint0_linear_429_2685" x1="476" y1="17" x2="227.5" y2="263.5" gradientUnits="userSpaceOnUse">
<stop stop-color="#6162FD"/>
<stop offset="1" stop-color="#737373"/>
</linearGradient>
<linearGradient id="paint1_linear_429_2685" x1="454" y1="42.5" x2="339.636" y2="182.008" gradientUnits="userSpaceOnUse">
<stop stop-color="#6162FD"/>
<stop offset="1" stop-color="#737373"/>
</linearGradient>
<linearGradient id="paint2_linear_429_2685" x1="445" y1="68.5" x2="406" y2="150.5" gradientUnits="userSpaceOnUse">
<stop stop-color="#6162FD"/>
<stop offset="1" stop-color="#737373"/>
</linearGradient>
<linearGradient id="paint3_linear_429_2685" x1="618" y1="42.8922" x2="619.116" y2="345.003" gradientUnits="userSpaceOnUse">
<stop stop-color="white" stop-opacity="0"/>
<stop offset="0.817688" stop-color="white" stop-opacity="0.817688"/>
<stop offset="1" stop-color="white" stop-opacity="0"/>
</linearGradient>
<clipPath id="clip0_429_2685">
<rect width="22" height="22" fill="white" transform="translate(788 275)"/>
</clipPath>
<clipPath id="clip1_429_2685">
<rect width="22" height="22" fill="white" transform="translate(596 140)"/>
</clipPath>
</defs>
</svg>
