<svg width="82" height="82" viewBox="0 0 82 82" fill="none" xmlns="http://www.w3.org/2000/svg">
<g filter="url(#filter0_d_2094_7155)">
<rect x="16.0285" y="22.3813" width="40" height="40" rx="7" transform="rotate(-15 16.0285 22.3813)" fill="#6162FD"/>
</g>
<g clip-path="url(#clip0_2094_7155)">
<mask id="mask0_2094_7155" style="mask-type:luminance" maskUnits="userSpaceOnUse" x="29" y="25" width="23" height="23">
<path d="M29.5012 30.1596L46.8879 25.5009L51.5466 42.8875L34.1599 47.5463L29.5012 30.1596Z" fill="white"/>
</mask>
<g mask="url(#mask0_2094_7155)">
<path fill-rule="evenodd" clip-rule="evenodd" d="M47.7001 29.3923C47.8723 29.4918 47.998 29.6556 48.0494 29.8477C48.1009 30.0398 48.074 30.2445 47.9746 30.4167L42.9364 39.143C42.837 39.3152 42.6732 39.4409 42.4811 39.4924C42.289 39.5438 42.0843 39.5169 41.9121 39.4175L37.9687 37.1408L34.3662 43.3806C34.2649 43.5491 34.1015 43.6712 33.9111 43.7204C33.7207 43.7697 33.5186 43.7422 33.3483 43.6438C33.1779 43.5455 33.0531 43.3842 33.0005 43.1947C32.948 43.0052 32.972 42.8027 33.0673 42.6307L37.0448 35.7415C37.1443 35.5693 37.308 35.4436 37.5001 35.3921C37.6922 35.3407 37.8969 35.3676 38.0692 35.467L42.0125 37.7437L46.6757 29.6668C46.7752 29.4946 46.939 29.369 47.1311 29.3175C47.3232 29.266 47.5278 29.2929 47.7001 29.3923Z" fill="white"/>
<path fill-rule="evenodd" clip-rule="evenodd" d="M42.2539 31.4007C42.2024 31.2085 42.2294 31.0038 42.3288 30.8315C42.4283 30.6593 42.5921 30.5336 42.7842 30.4821L47.1309 29.3174C47.323 29.2659 47.5277 29.2929 47.7 29.3923C47.8723 29.4918 47.998 29.6556 48.0495 29.8477L49.2141 34.1944C49.2656 34.3865 49.2387 34.5913 49.1392 34.7635C49.0398 34.9358 48.8759 35.0615 48.6838 35.113C48.4917 35.1644 48.287 35.1375 48.1147 35.038C47.9424 34.9386 47.8167 34.7748 47.7653 34.5826L46.7947 30.9604L43.1725 31.931C42.9803 31.9825 42.7756 31.9555 42.6033 31.8561C42.4311 31.7566 42.3054 31.5928 42.2539 31.4007Z" fill="white"/>
</g>
</g>
<defs>
<filter id="filter0_d_2094_7155" x="5.72205e-06" y="5.72205e-06" width="81.0468" height="81.0468" filterUnits="userSpaceOnUse" color-interpolation-filters="sRGB">
<feFlood flood-opacity="0" result="BackgroundImageFix"/>
<feColorMatrix in="SourceAlpha" type="matrix" values="0 0 0 0 0 0 0 0 0 0 0 0 0 0 0 0 0 0 127 0" result="hardAlpha"/>
<feOffset dy="4"/>
<feGaussianBlur stdDeviation="8.8"/>
<feComposite in2="hardAlpha" operator="out"/>
<feColorMatrix type="matrix" values="0 0 0 0 0.380392 0 0 0 0 0.384314 0 0 0 0 0.992157 0 0 0 0.43 0"/>
<feBlend mode="normal" in2="BackgroundImageFix" result="effect1_dropShadow_2094_7155"/>
<feBlend mode="normal" in="SourceGraphic" in2="effect1_dropShadow_2094_7155" result="shape"/>
</filter>
<clipPath id="clip0_2094_7155">
<rect width="18" height="18" fill="white" transform="translate(29.5012 30.1596) rotate(-15)"/>
</clipPath>
</defs>
</svg>
