<svg width="49" height="49" viewBox="0 0 49 49" fill="none" xmlns="http://www.w3.org/2000/svg">
<rect y="10.3528" width="40" height="40" rx="7" transform="rotate(-15 0 10.3528)" fill="#6162FD"/>
<g clip-path="url(#clip0_490_172)">
<mask id="mask0_490_172" style="mask-type:luminance" maskUnits="userSpaceOnUse" x="13" y="13" width="23" height="23">
<path d="M13.4727 18.1321L30.8593 13.4733L35.5181 30.86L18.1314 35.5187L13.4727 18.1321Z" fill="white"/>
</mask>
<g mask="url(#mask0_490_172)">
<path fill-rule="evenodd" clip-rule="evenodd" d="M31.6716 17.3638C31.8438 17.4633 31.9694 17.6271 32.0209 17.8192C32.0724 18.0113 32.0454 18.2159 31.946 18.3882L26.9079 27.1145C26.8084 27.2867 26.6446 27.4124 26.4525 27.4638C26.2605 27.5153 26.0558 27.4884 25.8835 27.389L21.9402 25.1123L18.3376 31.352C18.2364 31.5206 18.0729 31.6427 17.8825 31.6919C17.6921 31.7412 17.49 31.7137 17.3197 31.6153C17.1494 31.517 17.0245 31.3557 16.972 31.1662C16.9194 30.9767 16.9434 30.7741 17.0388 30.6021L21.0163 23.713C21.1157 23.5407 21.2795 23.4151 21.4716 23.3636C21.6637 23.3121 21.8684 23.3391 22.0406 23.4385L25.984 25.7152L30.6472 17.6383C30.7467 17.4661 30.9104 17.3404 31.1025 17.289C31.2946 17.2375 31.4993 17.2644 31.6716 17.3638Z" fill="white"/>
<path fill-rule="evenodd" clip-rule="evenodd" d="M26.2254 19.3721C26.1739 19.18 26.2008 18.9753 26.3003 18.803C26.3997 18.6308 26.5636 18.5051 26.7557 18.4536L31.1024 17.2889C31.2945 17.2374 31.4992 17.2644 31.6715 17.3638C31.8437 17.4633 31.9694 17.6271 32.0209 17.8192L33.1856 22.1659C33.2371 22.358 33.2101 22.5627 33.1107 22.735C33.0112 22.9073 32.8474 23.033 32.6553 23.0844C32.4631 23.1359 32.2584 23.109 32.0862 23.0095C31.9139 22.9101 31.7882 22.7462 31.7367 22.5541L30.7661 18.9319L27.1439 19.9025C26.9518 19.9539 26.7471 19.927 26.5748 19.8275C26.4025 19.7281 26.2768 19.5643 26.2254 19.3721Z" fill="white"/>
</g>
</g>
<defs>
<clipPath id="clip0_490_172">
<rect width="18" height="18" fill="white" transform="translate(13.4727 18.1321) rotate(-15)"/>
</clipPath>
</defs>
</svg>
