<svg width="155" height="29" viewBox="0 0 155 29" fill="none" xmlns="http://www.w3.org/2000/svg">
<path d="M11.3921 23.1703H1.07722C0.483601 23.1703 0 22.6513 0 22.0144V3.10437C0 2.46731 0.483601 1.94832 1.07722 1.94832H2.69087C3.28441 1.94832 3.76801 2.46731 3.76801 3.10437V17.9579C3.76801 18.5948 4.25176 19.1138 4.84523 19.1138H11.3921C11.9857 19.1138 12.4693 19.6328 12.4693 20.2699V22.0143C12.4693 22.6513 11.9857 23.1703 11.3921 23.1703V23.1703ZM64.2666 5.314H65.9448C66.5385 5.314 67.0221 5.83299 67.0221 6.47005V7.51555C67.0221 8.15261 66.5385 8.6716 65.9448 8.6716H64.2666C63.673 8.6716 63.1894 9.19059 63.1894 9.82757V17.3522C63.1894 18.7734 63.647 19.4838 64.5629 19.4838C65.2036 19.4838 65.7655 19.1866 66.2427 18.5918C66.5518 18.2075 67.035 18.0843 67.4717 18.2791L68.2221 18.6138C68.5312 18.7512 68.7443 19.0056 68.8408 19.3497C68.9365 19.6936 68.8889 20.031 68.7015 20.3288C67.5144 22.2148 66.1484 23.1581 64.6079 23.1581C61.1503 23.1581 59.4176 21.104 59.4176 16.9949V8.67168H58.9323C58.3387 8.67168 57.8551 8.15269 57.8551 7.51563V5.31408H58.3404C58.934 5.31408 59.4176 4.79509 59.4176 4.15803V4.09499C59.4176 3.45801 59.9012 2.93902 60.4948 2.93902H62.1122C62.7058 2.93902 63.1894 3.45801 63.1894 4.09499V4.15803C63.1894 4.79509 63.673 5.31408 64.2666 5.31408V5.314ZM54.6177 23.1583H53.0162C52.4226 23.1583 51.9389 22.6393 51.9389 22.0023V12.7403C51.9315 10.4705 51.0798 9.33836 49.3886 9.33836C48.8366 9.33836 48.2578 9.45951 47.6599 9.70349C46.979 9.99157 46.4039 10.3938 45.9272 10.9173C45.4741 11.415 45.2023 11.979 45.1117 12.605C45.1025 12.6667 45.0988 12.72 45.0988 12.7825V22.0023C45.0988 22.6393 44.6152 23.1583 44.0216 23.1583H42.4079C41.8144 23.1583 41.3307 22.6393 41.3307 22.0023V1.15605C41.3307 0.51907 41.8145 7.91869e-05 42.4079 7.91869e-05H44.0216C44.6152 7.91869e-05 45.0988 0.51907 45.0988 1.15605V4.99899C45.0988 5.41306 45.2841 5.76782 45.6121 5.98471C45.9406 6.20081 46.3196 6.21752 46.6633 6.03016C47.5499 5.54776 48.466 5.30608 49.4119 5.30608C50.3802 5.30608 51.3028 5.51751 52.1808 5.94757C52.869 6.28047 53.4743 6.74744 54.0006 7.34871C54.5264 7.95322 54.9389 8.70067 55.2416 9.59374C55.5443 10.4825 55.695 11.5346 55.695 12.7401V22.002C55.695 22.6391 55.2114 23.1581 54.6178 23.1581V23.1581L54.6177 23.1583ZM29.5843 29C28.4307 28.996 27.3103 28.8256 26.2247 28.4763C25.6758 28.3 25.175 28.0977 24.723 27.8702C24.4097 27.7122 24.2021 27.4337 24.1284 27.0706C24.0541 26.7078 24.1338 26.3614 24.3573 26.0777L25.2852 24.8975C25.5989 24.499 26.0997 24.375 26.5439 24.5853C26.8112 24.7114 27.1128 24.8241 27.4506 24.92C28.1206 25.1066 28.8313 25.2042 29.5843 25.2042C31.8669 25.2042 33.1218 24.3837 33.3487 22.7443C33.4053 22.334 33.2693 21.9519 32.9725 21.6861C32.6752 21.4209 32.301 21.3463 31.9353 21.4804C31.0486 21.8052 30.1132 21.968 29.1301 21.968C27.976 21.968 26.8982 21.7537 25.8918 21.3189C24.8894 20.8886 24.0039 20.2918 23.2435 19.5282C22.4835 18.7695 21.8857 17.8845 21.4543 16.877C21.023 15.8703 20.8036 14.7864 20.8036 13.6293C20.8036 12.4802 21.023 11.4006 21.4543 10.3937C21.8856 9.38666 22.4835 8.50594 23.2435 7.74234C24.0039 6.98278 24.8893 6.38643 25.8918 5.95161C26.8982 5.52147 27.9759 5.306 29.1301 5.306C30.6664 5.306 32.0851 5.69607 33.3861 6.48327V6.56499L33.4089 6.57703V6.46189C33.4089 5.82491 33.8927 5.30592 34.4862 5.30592H36.0995C36.6931 5.30592 37.1767 5.82491 37.1767 6.46189V21.764C37.1767 21.7726 37.1767 21.7806 37.1767 21.7896C37.1376 23.7042 36.6529 25.2268 35.7242 26.3572C34.9336 27.3231 33.9728 28.0139 32.8411 28.4276C31.7709 28.8091 30.6851 28.9958 29.5843 28.9999H29.5842L29.5843 29ZM29.13 18.1965C30.0986 18.1965 30.9651 17.9249 31.7295 17.3842C32.4171 16.8943 32.9338 16.2688 33.2782 15.5064C33.3527 15.3418 33.3859 15.185 33.3859 15.0024V12.2714C33.3859 12.0887 33.3527 11.9328 33.2788 11.7684C32.953 11.0448 32.4779 10.4484 31.8538 9.9789C31.048 9.37439 30.14 9.07379 29.13 9.07379C28.5022 9.07379 27.9117 9.19574 27.3598 9.43109C26.811 9.67102 26.3269 9.99585 25.911 10.4136C25.4909 10.8276 25.1657 11.3107 24.927 11.8634C24.6928 12.4152 24.5754 13.0034 24.5754 13.629C24.5754 14.8921 25.018 15.9676 25.9109 16.8606C26.7997 17.7503 27.8742 18.1965 29.1299 18.1965H29.13ZM18.2457 6.46197V22.0023C18.2457 22.6393 17.7621 23.1583 17.1688 23.1583H15.5323C14.9388 23.1583 14.4551 22.6393 14.4551 22.0023V6.46197C14.4551 5.82499 14.9389 5.306 15.5323 5.306H17.1688C17.7621 5.306 18.2457 5.82499 18.2457 6.46197ZM16.3393 4.0558C15.8211 4.0558 15.3784 3.85696 15.0154 3.45912C14.6481 3.06493 14.4666 2.59052 14.4666 2.03384C14.4666 1.46987 14.6481 0.99047 15.0154 0.592318C15.3784 0.19868 15.8211 0 16.3393 0C16.8693 0 17.3189 0.198759 17.6899 0.592318C18.0603 0.99047 18.2456 1.46987 18.2456 2.03384C18.2456 2.59052 18.0603 3.06493 17.6899 3.45912C17.3189 3.85696 16.8693 4.0558 16.3393 4.0558Z" fill="url(#paint0_linear_2094_6660)"/>
<path d="M84.4272 19.998H81.6656L80.0424 16.0019H75.3979L73.8663 19.998H71.1094L76.455 5.99805H78.7846L84.4427 19.9904L84.4271 19.998H84.4272ZM78.8892 13.1502L77.6546 10.1063L76.493 13.1502H78.8892Z" fill="white"/>
<path d="M94.4414 19.9997H91.8259V12.9968C91.8202 11.4718 91.2305 10.7099 90.0497 10.7099C89.6654 10.7099 89.2643 10.7924 88.8463 10.9552C88.3744 11.149 87.9717 11.4192 87.6398 11.7719C87.307 12.1237 87.1152 12.525 87.0653 12.972V19.9998H84.4414V8H87.0653V9.24789C88.011 8.41538 89.012 8 90.0661 8C90.7403 8 91.3827 8.14206 91.9967 8.43129C92.4732 8.65584 92.8981 8.96962 93.2615 9.37308C93.627 9.77935 93.9146 10.2821 94.1257 10.8821C94.3357 11.4801 94.4412 12.1866 94.4412 12.9972V20V19.9999L94.4414 19.9997Z" fill="white"/>
<path d="M105.555 20H102.932V18.9359C102.144 19.6126 101.322 19.9513 100.469 19.9513C99.1152 19.9513 97.9467 19.5391 96.9592 18.7115C96.0236 17.9286 95.5547 16.976 95.5547 15.8494C95.5547 13.5485 97.2717 12.397 100.709 12.397C101.444 12.397 102.171 12.5221 102.884 12.7737C102.829 11.2915 101.957 10.5493 100.269 10.5493C99.7452 10.5493 99.2495 10.6118 98.7835 10.74C98.3176 10.8693 97.9485 11.0379 97.6773 11.2457L96.0553 9.25276C96.5508 8.88735 97.175 8.58437 97.9302 8.34982C98.6868 8.11831 99.4662 8 100.269 8C101.036 8 101.791 8.12623 102.537 8.38252C103.324 8.6608 103.993 9.12462 104.543 9.77422C105.191 10.5353 105.528 11.5616 105.555 12.853V19.9999L105.555 20ZM100.478 17.8584C101.518 17.8584 102.334 17.4292 102.932 16.5698V14.5719C102.284 14.2561 101.541 14.1 100.709 14.1C99.7317 14.1 99.0654 14.2531 98.7156 14.564C98.3628 14.872 98.1863 15.301 98.1863 15.8494C98.1863 16.4306 98.3915 16.9103 98.8 17.2899C99.2073 17.6665 99.7691 17.8583 100.478 17.8583V17.8584Z" fill="white"/>
<path d="M109.996 19H107.773V4H109.996V19Z" fill="white"/>
<path d="M113.586 23.9999C113.125 23.9999 112.681 23.902 112.248 23.7114C111.818 23.5197 111.436 23.2434 111.109 22.8884L112.755 21.3117C112.976 21.5336 113.254 21.6447 113.593 21.6447C114.391 21.6447 115.003 21.0707 115.428 19.9238L111.27 8H113.881L116.653 15.9395L119.595 8H122.22L117.934 19.6082C117.513 20.8579 116.929 21.8969 116.189 22.7252C115.471 23.5753 114.604 24 113.586 24V23.9999Z" fill="white"/>
<path d="M126.938 7.52521H129.527V9.68422H126.938V15.2655C126.938 16.1786 127.248 16.6357 127.867 16.6357C128.439 16.6357 128.917 16.3012 129.294 15.6332L131.114 16.4056C130.212 18.1343 129.139 18.998 127.897 18.998C125.562 18.998 124.392 17.6771 124.392 15.0352V9.68415H123.336V7.52513H124.392V5.99805H126.938V7.52513L126.938 7.52521Z" fill="white"/>
<path d="M134.441 7.43688V19H132.219V7.43688H134.441ZM133.324 6.62689C133.019 6.62689 132.76 6.49863 132.547 6.24103C132.332 5.98551 132.225 5.67831 132.225 5.31726C132.225 4.95266 132.332 4.64137 132.547 4.38393C132.76 4.12941 133.019 4 133.324 4C133.634 4 133.898 4.12941 134.115 4.38393C134.333 4.64137 134.441 4.95266 134.441 5.31726C134.441 5.67831 134.333 5.98551 134.115 6.24103C133.898 6.49855 133.634 6.62689 133.324 6.62689Z" fill="white"/>
<path d="M141.143 19.998C140.369 19.998 139.646 19.8422 138.97 19.5311C138.295 19.2173 137.703 18.7891 137.193 18.2435C136.682 17.6972 136.281 17.0585 135.992 16.3332C135.7 15.6039 135.555 14.8261 135.555 14.0025C135.555 13.1702 135.7 12.3922 135.992 11.6659C136.281 10.9427 136.682 10.3051 137.193 9.75651C137.703 9.20747 138.295 8.77611 138.97 8.46514C139.646 8.15417 140.369 7.99805 141.143 7.99805C141.905 7.99805 142.642 8.16217 143.353 8.4928C144.062 8.82272 144.681 9.28957 145.212 9.89264L143.373 11.7534C142.768 11.063 142.025 10.7162 141.143 10.7162C140.72 10.7162 140.326 10.8017 139.956 10.9706C139.587 11.1423 139.262 11.3768 138.98 11.6798C138.701 11.9798 138.482 12.3296 138.322 12.7249C138.165 13.1233 138.084 13.5495 138.084 14.0024C138.084 14.4555 138.165 14.8808 138.322 15.2772C138.482 15.6754 138.701 16.0222 138.98 16.3192C139.262 16.6193 139.587 16.8538 139.956 17.0237C140.326 17.1956 140.72 17.28 141.143 17.28C141.623 17.28 142.073 17.1708 142.489 16.9521C142.906 16.7346 143.261 16.4176 143.561 16.0083L145.555 17.6703C145.019 18.4066 144.364 18.9778 143.589 19.3871C142.818 19.7933 141.999 19.998 141.143 19.998Z" fill="white"/>
<path d="M149.874 19.998C149.14 19.998 148.422 19.8808 147.72 19.6465C147.018 19.411 146.439 19.0841 145.98 18.6639L147.803 16.7365C148.011 16.9282 148.302 17.0783 148.678 17.1845C149.054 17.2908 149.452 17.3425 149.874 17.3425C150.256 17.3425 150.613 17.2908 150.946 17.1845C151.216 17.0971 151.425 16.9828 151.571 16.8408C151.718 16.6958 151.79 16.4882 151.79 16.216C151.79 16.0738 151.689 15.9476 151.486 15.8415C151.282 15.7322 151.021 15.6368 150.704 15.5495C150.386 15.46 150.05 15.3755 149.695 15.2882C149.174 15.1709 148.667 15.0397 148.179 14.8897C147.688 14.7397 147.245 14.543 146.853 14.2975C146.458 14.0512 146.145 13.7294 145.91 13.331C145.676 12.9295 145.559 12.4141 145.559 11.7781C145.559 10.8096 145.876 9.99601 146.512 9.34129C147.389 8.4462 148.595 7.99805 150.132 7.99805C150.867 7.99805 151.585 8.11636 152.286 8.34787C152.989 8.58241 153.569 8.91017 154.034 9.33346L152.203 11.2596C151.996 11.069 151.704 10.919 151.333 10.8146C150.96 10.7113 150.56 10.6597 150.132 10.6597C149.75 10.6597 149.396 10.7113 149.063 10.8126C148.79 10.897 148.582 11.0113 148.441 11.1564C148.296 11.2985 148.224 11.5082 148.224 11.7781C148.224 11.9233 148.326 12.0485 148.526 12.1548C148.727 12.2611 148.985 12.3594 149.303 12.4468C149.623 12.5342 149.959 12.6217 150.311 12.7062C150.835 12.8234 151.339 12.9575 151.829 13.1074C152.318 13.2545 152.761 13.4542 153.153 13.6965C153.548 13.9419 153.861 14.2649 154.096 14.6652C154.33 15.0636 154.447 15.5821 154.447 16.216C154.447 17.1876 154.13 18.0002 153.494 18.655C152.619 19.5501 151.411 19.998 149.874 19.998L149.874 19.998Z" fill="white"/>
<defs>
<linearGradient id="paint0_linear_2094_6660" x1="2.75796" y1="14.7091" x2="65.2718" y2="20.2251" gradientUnits="userSpaceOnUse">
<stop stop-color="#9333EA"/>
<stop offset="0.459615" stop-color="#6165F0"/>
<stop offset="0.799714" stop-color="#4E78F2"/>
<stop offset="1" stop-color="#3A8BF5"/>
</linearGradient>
</defs>
</svg>
