<svg width="216" height="41" viewBox="0 0 216 41" fill="none" xmlns="http://www.w3.org/2000/svg">
<path d="M15.8978 32.3344H1.50327C0.674869 32.3344 0 31.6102 0 30.7213V4.33217C0 3.44315 0.674869 2.71889 1.50327 2.71889H3.75513C4.58343 2.71889 5.2583 3.44315 5.2583 4.33217V25.0604C5.2583 25.9493 5.93337 26.6735 6.76156 26.6735H15.8978C16.7261 26.6735 17.401 27.3978 17.401 28.2868V30.7212C17.401 31.6101 16.7261 32.3343 15.8978 32.3343V32.3344ZM89.6846 7.41574H92.0267C92.8551 7.41574 93.5299 8.13999 93.5299 9.02902V10.488C93.5299 11.3771 92.8551 12.1013 92.0267 12.1013H89.6846C88.8563 12.1013 88.1814 12.8256 88.1814 13.7145V24.2151C88.1814 26.1985 88.82 27.1898 90.0981 27.1898C90.9922 27.1898 91.7764 26.7751 92.4424 25.9451C92.8737 25.4087 93.548 25.2368 94.1575 25.5087L95.2047 25.9757C95.636 26.1675 95.9334 26.5225 96.0681 27.0027C96.2016 27.4826 96.1351 27.9535 95.8737 28.369C94.2171 31.001 92.3108 32.3174 90.161 32.3174C85.3359 32.3174 82.9179 29.4509 82.9179 23.7165V12.1014H82.2407C81.4123 12.1014 80.7374 11.3772 80.7374 10.4881V7.41585H81.4146C82.2429 7.41585 82.9179 6.69159 82.9179 5.80257V5.71461C82.9179 4.82569 83.5928 4.10144 84.4211 4.10144H86.6782C87.5066 4.10144 88.1814 4.82569 88.1814 5.71461V5.80257C88.1814 6.69159 88.8563 7.41585 89.6846 7.41585V7.41574ZM76.2196 32.3176H73.9846C73.1562 32.3176 72.4813 31.5934 72.4813 30.7044V17.7792C72.4709 14.6117 71.2823 13.0318 68.9222 13.0318C68.1519 13.0318 67.3442 13.2008 66.5098 13.5413C65.5596 13.9433 64.7571 14.5046 64.0919 15.2353C63.4595 15.9298 63.0803 16.7168 62.9539 17.5904C62.941 17.6766 62.9358 17.7508 62.9358 17.8381V30.7044C62.9358 31.5934 62.261 32.3176 61.4326 32.3176H59.1807C58.3524 32.3176 57.6774 31.5934 57.6774 30.7044V1.61328C57.6774 0.724368 58.3525 0.000110506 59.1807 0.000110506H61.4326C62.261 0.000110506 62.9358 0.724368 62.9358 1.61328V6.97614C62.9358 7.55398 63.1944 8.04905 63.6522 8.35172C64.1105 8.6533 64.6395 8.67661 65.1191 8.41516C66.3564 7.74195 67.6348 7.40469 68.9548 7.40469C70.3061 7.40469 71.5935 7.69974 72.8189 8.2999C73.7793 8.76447 74.6239 9.41612 75.3583 10.2552C76.0921 11.0988 76.6678 12.1419 77.0902 13.3882C77.5127 14.6284 77.7229 16.0967 77.7229 17.7789V30.704C77.7229 31.5931 77.0481 32.3173 76.2197 32.3173V32.3174L76.2196 32.3176ZM41.2851 40.4698C39.6753 40.4642 38.1118 40.2265 36.5968 39.739C35.8309 39.4929 35.132 39.2107 34.5012 38.8931C34.0639 38.6726 33.7743 38.284 33.6715 37.7773C33.5678 37.271 33.6789 36.7876 33.9909 36.3917L35.2858 34.7447C35.7235 34.1886 36.4223 34.0156 37.0423 34.3091C37.4153 34.485 37.8362 34.6422 38.3076 34.7761C39.2426 35.0365 40.2344 35.1727 41.2852 35.1727C44.4705 35.1727 46.2219 34.0277 46.5384 31.7399C46.6174 31.1673 46.4276 30.6341 46.0134 30.2632C45.5986 29.893 45.0763 29.7889 44.566 29.9761C43.3287 30.4293 42.0233 30.6566 40.6514 30.6566C39.0408 30.6566 37.5367 30.3575 36.1323 29.7508C34.7334 29.1502 33.4977 28.3174 32.4366 27.2518C31.376 26.1931 30.5417 24.958 29.9396 23.552C29.3378 22.1471 29.0316 20.6346 29.0316 19.0198C29.0316 17.4162 29.3378 15.9097 29.9396 14.5045C30.5416 13.0992 31.376 11.8701 32.4366 10.8045C33.4977 9.74454 34.7333 8.91232 36.1323 8.30553C37.5367 7.70526 39.0407 7.40458 40.6514 7.40458C42.7952 7.40458 44.775 7.94893 46.5907 9.04747V9.16151L46.6225 9.17831V9.01763C46.6225 8.12872 47.2976 7.40447 48.1258 7.40447H50.3772C51.2056 7.40447 51.8805 8.12872 51.8805 9.01763V30.3718C51.8805 30.3839 51.8805 30.3951 51.8805 30.4075C51.8258 33.0795 51.1495 35.2043 49.8535 36.7818C48.7502 38.1296 47.4093 39.0937 45.8301 39.6711C44.3367 40.2034 42.8214 40.4639 41.2851 40.4697H41.285L41.2851 40.4698ZM40.6511 25.3934C42.0029 25.3934 43.2121 25.0144 44.2788 24.2599C45.2384 23.5762 45.9594 22.7033 46.44 21.6393C46.544 21.4096 46.5904 21.1909 46.5904 20.9359V17.1248C46.5904 16.8699 46.544 16.6523 46.4409 16.423C45.9863 15.4131 45.3232 14.5808 44.4523 13.9257C43.3278 13.0821 42.0606 12.6626 40.6511 12.6626C39.7751 12.6626 38.9511 12.8327 38.1809 13.1612C37.415 13.496 36.7394 13.9493 36.1591 14.5322C35.5728 15.1101 35.119 15.7841 34.7859 16.5555C34.459 17.3255 34.2952 18.1464 34.2952 19.0194C34.2952 20.782 34.9128 22.2829 36.159 23.5292C37.3992 24.7707 38.8987 25.3934 40.651 25.3934H40.6511ZM25.4621 9.01775V30.7044C25.4621 31.5934 24.7872 32.3176 23.9592 32.3176H21.6755C20.8472 32.3176 20.1722 31.5934 20.1722 30.7044V9.01775C20.1722 8.12883 20.8473 7.40458 21.6755 7.40458H23.9592C24.7872 7.40458 25.4621 8.12883 25.4621 9.01775ZM22.8016 5.6599C22.0784 5.6599 21.4607 5.38242 20.9542 4.82724C20.4416 4.27714 20.1883 3.6151 20.1883 2.83824C20.1883 2.05122 20.4416 1.38221 20.9542 0.826586C21.4607 0.27726 22.0784 0 22.8016 0C23.5412 0 24.1687 0.277371 24.6865 0.826586C25.2034 1.38221 25.462 2.05122 25.462 2.83824C25.462 3.6151 25.2034 4.27714 24.6865 4.82724C24.1687 5.38242 23.5412 5.6599 22.8016 5.6599Z" fill="#6162FD"/>
<path d="M117.819 27.9092H113.966L111.7 22.3326H105.219L103.082 27.9092H99.2344L106.694 8.37207H109.945L117.841 27.8985L117.819 27.9092H117.819ZM110.091 18.353L108.368 14.1051L106.747 18.353H110.091Z" fill="white"/>
<path d="M131.799 27.911H128.149V18.1383C128.141 16.0102 127.318 14.9469 125.67 14.9469C125.134 14.9469 124.574 15.0621 123.991 15.2893C123.332 15.5597 122.77 15.9368 122.307 16.429C121.843 16.92 121.575 17.4799 121.505 18.1037V27.9112H117.844V11.1653H121.505V12.9067C122.825 11.7449 124.222 11.1653 125.693 11.1653C126.634 11.1653 127.53 11.3635 128.387 11.7671C129.052 12.0805 129.645 12.5184 130.152 13.0814C130.662 13.6484 131.063 14.35 131.358 15.1872C131.651 16.0218 131.798 17.0077 131.798 18.1389V27.9114V27.9113L131.799 27.911Z" fill="white"/>
<path d="M147.307 27.9112H143.646V26.4262C142.547 27.3705 141.4 27.8432 140.21 27.8432C138.32 27.8432 136.69 27.2679 135.312 26.113C134.006 25.0206 133.352 23.6911 133.352 22.1189C133.352 18.908 135.748 17.3011 140.544 17.3011C141.57 17.3011 142.584 17.4757 143.579 17.8268C143.503 15.7584 142.286 14.7227 139.93 14.7227C139.199 14.7227 138.508 14.8098 137.857 14.9887C137.207 15.1691 136.692 15.4045 136.314 15.6944L134.05 12.9133C134.742 12.4033 135.613 11.9805 136.667 11.6532C137.722 11.3301 138.81 11.165 139.93 11.165C141 11.165 142.054 11.3412 143.095 11.6988C144.193 12.0872 145.127 12.7345 145.895 13.641C146.799 14.7031 147.269 16.1353 147.307 17.9375V27.911L147.307 27.9112ZM140.222 24.9225C141.673 24.9225 142.811 24.3236 143.646 23.1243V20.3362C142.742 19.8955 141.705 19.6777 140.544 19.6777C139.181 19.6777 138.251 19.8913 137.763 20.3251C137.27 20.755 137.024 21.3537 137.024 22.119C137.024 22.93 137.31 23.5995 137.88 24.1292C138.449 24.6548 139.233 24.9224 140.222 24.9224V24.9225Z" fill="white"/>
<path d="M153.503 26.5157H150.402V5.58301H153.503V26.5157Z" fill="white"/>
<path d="M158.51 33.4931C157.867 33.4931 157.248 33.3565 156.643 33.0904C156.044 32.823 155.511 32.4373 155.055 31.942L157.351 29.7417C157.66 30.0514 158.048 30.2064 158.521 30.2064C159.634 30.2064 160.488 29.4054 161.081 27.8049L155.279 11.165H158.923L162.791 22.2447L166.896 11.165H170.56L164.578 27.3645C163.991 29.1084 163.176 30.5582 162.144 31.7142C161.142 32.9006 159.932 33.4932 158.51 33.4932V33.4931Z" fill="white"/>
<path d="M177.141 10.5032H180.753V13.5162H177.141V21.3048C177.141 22.5791 177.573 23.217 178.436 23.217C179.234 23.217 179.901 22.7503 180.428 21.818L182.967 22.8959C181.708 25.3083 180.212 26.5137 178.479 26.5137C175.22 26.5137 173.587 24.6703 173.587 20.9835V13.5161H172.113V10.5031H173.587V8.37207H177.14V10.5031L177.141 10.5032Z" fill="white"/>
<path d="M187.62 10.3792V26.5157H184.52V10.3792H187.62ZM186.061 9.24885C185.636 9.24885 185.275 9.06987 184.977 8.71039C184.677 8.35381 184.529 7.9251 184.529 7.42125C184.529 6.91246 184.677 6.47805 184.977 6.11879C185.275 5.76361 185.636 5.58301 186.061 5.58301C186.494 5.58301 186.862 5.76361 187.166 6.11879C187.47 6.47805 187.621 6.91246 187.621 7.42125C187.621 7.9251 187.47 8.35381 187.166 8.71039C186.863 9.06976 186.494 9.24885 186.061 9.24885Z" fill="white"/>
<path d="M196.967 27.9092C195.886 27.9092 194.878 27.6917 193.935 27.2576C192.992 26.8197 192.166 26.2221 191.454 25.4607C190.742 24.6983 190.182 23.807 189.778 22.7949C189.371 21.7772 189.168 20.6917 189.168 19.5423C189.168 18.3809 189.371 17.2951 189.778 16.2816C190.182 15.2724 190.742 14.3825 191.454 13.617C192.166 12.8509 192.992 12.2489 193.935 11.8149C194.878 11.381 195.886 11.1631 196.967 11.1631C198.03 11.1631 199.058 11.3921 200.05 11.8535C201.04 12.3139 201.904 12.9654 202.644 13.807L200.079 16.4038C199.235 15.4402 198.198 14.9563 196.967 14.9563C196.376 14.9563 195.827 15.0755 195.31 15.3113C194.795 15.5509 194.342 15.8782 193.949 16.301C193.559 16.7197 193.253 17.2078 193.03 17.7594C192.811 18.3154 192.697 18.9101 192.697 19.5422C192.697 20.1745 192.811 20.768 193.03 21.3212C193.253 21.8769 193.559 22.3609 193.949 22.7754C194.342 23.1941 194.795 23.5214 195.31 23.7585C195.827 23.9983 196.376 24.1161 196.967 24.1161C197.637 24.1161 198.265 23.9637 198.845 23.6586C199.427 23.3551 199.923 22.9126 200.341 22.3414L203.123 24.6609C202.375 25.6883 201.461 26.4854 200.38 27.0566C199.303 27.6235 198.162 27.9092 196.967 27.9092Z" fill="white"/>
<path d="M209.151 27.9092C208.126 27.9092 207.124 27.7456 206.145 27.4186C205.165 27.0899 204.357 26.6338 203.717 26.0474L206.261 23.3577C206.551 23.6251 206.958 23.8347 207.482 23.9829C208.007 24.1313 208.563 24.2034 209.151 24.2034C209.684 24.2034 210.183 24.1313 210.648 23.9829C211.025 23.8609 211.315 23.7014 211.519 23.5032C211.724 23.3008 211.825 23.0111 211.825 22.6313C211.825 22.4329 211.684 22.2568 211.4 22.1087C211.117 21.9561 210.752 21.823 210.309 21.7012C209.865 21.5763 209.396 21.4585 208.902 21.3365C208.175 21.1729 207.467 20.9898 206.785 20.7805C206.101 20.5711 205.482 20.2966 204.935 19.9541C204.384 19.6104 203.948 19.1613 203.62 18.6052C203.293 18.045 203.129 17.3257 203.129 16.4382C203.129 15.0866 203.572 13.9513 204.459 13.0376C205.683 11.7885 207.367 11.1631 209.512 11.1631C210.536 11.1631 211.538 11.3282 212.517 11.6513C213.498 11.9786 214.308 12.436 214.956 13.0267L212.402 15.7147C212.112 15.4486 211.705 15.2393 211.187 15.0936C210.667 14.9495 210.108 14.8774 209.511 14.8774C208.979 14.8774 208.484 14.9495 208.019 15.0908C207.638 15.2086 207.348 15.3682 207.151 15.5705C206.949 15.7689 206.849 16.0615 206.849 16.4382C206.849 16.6408 206.991 16.8155 207.271 16.9639C207.55 17.1123 207.91 17.2494 208.354 17.3714C208.801 17.4933 209.27 17.6154 209.761 17.7333C210.492 17.897 211.195 18.084 211.88 18.2932C212.562 18.4985 213.18 18.7772 213.728 19.1154C214.278 19.4578 214.715 19.9086 215.043 20.4672C215.369 21.0232 215.533 21.7467 215.533 22.6313C215.533 23.9872 215.09 25.1213 214.203 26.0349C212.982 27.284 211.295 27.9091 209.151 27.9091L209.151 27.9092Z" fill="white"/>
</svg>
