<svg width="120" height="23" viewBox="0 0 120 23" fill="none" xmlns="http://www.w3.org/2000/svg">
<path d="M8.82686 17.9528H0.83465C0.374704 17.9528 0 17.5507 0 17.0572V2.40533C0 1.91172 0.374704 1.50959 0.83465 1.50959H2.08494C2.54483 1.50959 2.91953 1.91172 2.91953 2.40533V13.9141C2.91953 14.4077 3.29435 14.8098 3.75418 14.8098H8.82686C9.28675 14.8098 9.66145 15.2119 9.66145 15.7055V17.0571C9.66145 17.5507 9.28675 17.9528 8.82686 17.9528V17.9528ZM49.795 4.11739H51.0954C51.5553 4.11739 51.93 4.51952 51.93 5.01312V5.8232C51.93 6.31681 51.5553 6.71893 51.0954 6.71893H49.795C49.3351 6.71893 48.9604 7.12106 48.9604 7.6146V13.4448C48.9604 14.546 49.315 15.0964 50.0246 15.0964C50.5211 15.0964 50.9564 14.8662 51.3262 14.4053C51.5657 14.1075 51.9401 14.0121 52.2785 14.163L52.8599 14.4223C53.0994 14.5288 53.2645 14.7259 53.3393 14.9926C53.4134 15.259 53.3765 15.5205 53.2313 15.7512C52.3116 17.2125 51.2531 17.9434 50.0595 17.9434C47.3805 17.9434 46.038 16.3518 46.038 13.168V6.719H45.662C45.202 6.719 44.8273 6.31687 44.8273 5.82326V4.11746H45.2033C45.6632 4.11746 46.038 3.71533 46.038 3.22172V3.17288C46.038 2.67934 46.4127 2.27721 46.8726 2.27721H48.1258C48.5857 2.27721 48.9604 2.67934 48.9604 3.17288V3.22172C48.9604 3.71533 49.3351 4.11746 49.795 4.11746V4.11739ZM42.3189 17.9435H41.078C40.6181 17.9435 40.2434 17.5414 40.2434 17.0478V9.87145C40.2376 8.11275 39.5776 7.23555 38.2673 7.23555C37.8396 7.23555 37.3911 7.32942 36.9278 7.51846C36.4003 7.74167 35.9547 8.0533 35.5853 8.45898C35.2342 8.8446 35.0237 9.28158 34.9535 9.76659C34.9463 9.81445 34.9435 9.85568 34.9435 9.90415V17.0478C34.9435 17.5414 34.5688 17.9435 34.1088 17.9435H32.8585C32.3986 17.9435 32.0239 17.5414 32.0239 17.0478V0.895731C32.0239 0.402186 32.3987 6.13556e-05 32.8585 6.13556e-05H34.1088C34.5688 6.13556e-05 34.9435 0.402186 34.9435 0.895731V3.87332C34.9435 4.19415 35.087 4.46902 35.3412 4.63708C35.5957 4.80452 35.8894 4.81746 36.1557 4.67229C36.8427 4.29852 37.5524 4.11126 38.2853 4.11126C39.0356 4.11126 39.7504 4.27508 40.4308 4.6083C40.964 4.86624 41.433 5.22805 41.8407 5.69393C42.2481 6.16232 42.5678 6.74145 42.8023 7.43342C43.0369 8.12201 43.1536 8.93725 43.1536 9.87126V17.0476C43.1536 17.5412 42.7789 17.9433 42.319 17.9433V17.9434L42.3189 17.9435ZM22.9225 22.4698C22.0287 22.4667 21.1606 22.3347 20.3194 22.064C19.8942 21.9274 19.5061 21.7707 19.1559 21.5944C18.9131 21.472 18.7523 21.2562 18.6952 20.9749C18.6376 20.6937 18.6993 20.4254 18.8726 20.2055L19.5915 19.2911C19.8345 18.9823 20.2226 18.8862 20.5668 19.0492C20.7739 19.1469 21.0076 19.2342 21.2693 19.3085C21.7884 19.4531 22.3391 19.5287 22.9225 19.5287C24.6911 19.5287 25.6635 18.893 25.8392 17.6228C25.8831 17.3048 25.7777 17.0088 25.5478 16.8029C25.3174 16.5973 25.0274 16.5395 24.7441 16.6435C24.0571 16.8951 23.3324 17.0213 22.5706 17.0213C21.6764 17.0213 20.8413 16.8552 20.0615 16.5184C19.2848 16.1849 18.5987 15.7225 18.0096 15.1309C17.4207 14.543 16.9575 13.8573 16.6232 13.0766C16.289 12.2966 16.1191 11.4568 16.1191 10.5602C16.1191 9.6699 16.289 8.83343 16.6232 8.05324C16.9574 7.27298 17.4207 6.59058 18.0096 5.99893C18.5987 5.4104 19.2848 4.94833 20.0615 4.61143C20.8413 4.27815 21.6763 4.1112 22.5706 4.1112C23.7609 4.1112 24.8602 4.41343 25.8683 5.02337V5.08669L25.8859 5.09602V5.0068C25.8859 4.51326 26.2607 4.11114 26.7206 4.11114H27.9706C28.4306 4.11114 28.8053 4.51326 28.8053 5.0068V16.8632C28.8053 16.8699 28.8053 16.8761 28.8053 16.883C28.7749 18.3665 28.3994 19.5463 27.6799 20.4221C27.0673 21.1705 26.3228 21.7057 25.4459 22.0263C24.6168 22.3219 23.7754 22.4665 22.9225 22.4697H22.9224L22.9225 22.4698ZM22.5705 14.099C23.321 14.099 23.9924 13.8886 24.5846 13.4697C25.1174 13.09 25.5177 12.6054 25.7846 12.0147C25.8424 11.8871 25.8681 11.7657 25.8681 11.6241V9.5081C25.8681 9.36655 25.8424 9.24574 25.7851 9.11843C25.5327 8.5577 25.1645 8.09563 24.681 7.73185C24.0566 7.26347 23.3531 7.03056 22.5705 7.03056C22.0841 7.03056 21.6266 7.12505 21.1989 7.3074C20.7737 7.4933 20.3986 7.74499 20.0764 8.06864C19.7509 8.38946 19.4989 8.76373 19.314 9.192C19.1325 9.61952 19.0415 10.0753 19.0415 10.56C19.0415 11.5387 19.3844 12.372 20.0763 13.064C20.7649 13.7533 21.5975 14.099 22.5704 14.099H22.5705ZM14.1371 5.00687V17.0478C14.1371 17.5414 13.7624 17.9435 13.3027 17.9435H12.0348C11.5749 17.9435 11.2001 17.5414 11.2001 17.0478V5.00687C11.2001 4.51332 11.5749 4.1112 12.0348 4.1112H13.3027C13.7624 4.1112 14.1371 4.51332 14.1371 5.00687ZM12.66 3.14251C12.2585 3.14251 11.9155 2.98845 11.6343 2.6802C11.3497 2.37477 11.209 2.00719 11.209 1.57586C11.209 1.13888 11.3497 0.767436 11.6343 0.45894C11.9155 0.153941 12.2585 0 12.66 0C13.0707 0 13.4191 0.154003 13.7065 0.45894C13.9935 0.767436 14.1371 1.13888 14.1371 1.57586C14.1371 2.00719 13.9935 2.37477 13.7065 2.6802C13.4191 2.98845 13.0707 3.14251 12.66 3.14251Z" fill="white"/>
<path d="M65.4165 15.4959H63.2768L62.0191 12.3996H58.4205L57.2338 15.4959H55.0977L59.2396 4.64844H61.0446L65.4286 15.49L65.4165 15.4959H65.4165ZM61.1256 10.1901L60.169 7.83157L59.269 10.1901H61.1256Z" fill="white"/>
<path d="M73.1779 15.4968H71.1514V10.0708C71.1469 8.88924 70.69 8.29888 69.7751 8.29888C69.4773 8.29888 69.1666 8.3628 68.8427 8.48898C68.4771 8.63912 68.165 8.84848 67.9079 9.12176C67.65 9.39436 67.5014 9.70524 67.4627 10.0516V15.4969H65.4297V6.19922H67.4627V7.16611C68.1954 6.52106 68.9711 6.19922 69.7878 6.19922C70.3102 6.19922 70.808 6.30929 71.2837 6.53339C71.6529 6.70738 71.9821 6.9505 72.2637 7.26311C72.5469 7.57789 72.7697 7.96744 72.9333 8.4323C73.096 8.89568 73.1778 9.44305 73.1778 10.0711V15.4971V15.497L73.1779 15.4968Z" fill="white"/>
<path d="M81.7873 15.4971H79.755V14.6726C79.1444 15.1969 78.5078 15.4593 77.8468 15.4593C76.7978 15.4593 75.8924 15.1399 75.1273 14.4987C74.4024 13.8921 74.0391 13.154 74.0391 12.2811C74.0391 10.4983 75.3695 9.60612 78.0324 9.60612C78.602 9.60612 79.1652 9.70305 79.7178 9.89798C79.6755 8.74954 78.9995 8.17449 77.6915 8.17449C77.2859 8.17449 76.9019 8.22287 76.5408 8.32222C76.1798 8.42238 75.8938 8.55307 75.6837 8.71405L74.4269 7.16988C74.8108 6.88675 75.2945 6.652 75.8797 6.47027C76.4659 6.29089 77.0698 6.19922 77.6915 6.19922C78.2857 6.19922 78.8709 6.29702 79.4489 6.4956C80.0587 6.71122 80.5772 7.07059 81.0036 7.57392C81.5056 8.16365 81.7662 8.95884 81.7872 9.95942V15.497L81.7873 15.4971ZM77.8535 13.8377C78.6594 13.8377 79.2914 13.5052 79.755 12.8393V11.2913C79.2528 11.0466 78.6772 10.9256 78.0324 10.9256C77.2755 10.9256 76.7592 11.0442 76.4882 11.2851C76.2148 11.5238 76.0781 11.8562 76.0781 12.2811C76.0781 12.7314 76.2371 13.1031 76.5536 13.3972C76.8692 13.689 77.3044 13.8376 77.8535 13.8376V13.8377Z" fill="white"/>
<path d="M85.2296 14.7219H83.5078V3.09961H85.2296V14.7219Z" fill="white"/>
<path d="M88.0085 18.5963C87.6514 18.5963 87.3074 18.5204 86.972 18.3727C86.6393 18.2242 86.3433 18.0101 86.0898 17.7351L87.3649 16.5134C87.5362 16.6853 87.7518 16.7714 88.0145 16.7714C88.6323 16.7714 89.1066 16.3267 89.4359 15.438L86.2145 6.19922H88.2374L90.385 12.3509L92.6646 6.19922H94.699L91.3774 15.1935C91.0516 16.1618 90.5991 16.9668 90.0259 17.6086C89.4697 18.2673 88.7978 18.5963 88.0085 18.5963V18.5963Z" fill="white"/>
<path d="M98.3538 5.83171H100.36V7.50456H98.3538V11.829C98.3538 12.5365 98.5937 12.8907 99.073 12.8907C99.5163 12.8907 99.8865 12.6315 100.179 12.1139L101.589 12.7124C100.89 14.0518 100.059 14.7211 99.0968 14.7211C97.2872 14.7211 96.3806 13.6976 96.3806 11.6506V7.5045H95.5625V5.83165H96.3806V4.64844H98.3537V5.83165L98.3538 5.83171Z" fill="white"/>
<path d="M104.171 5.76258V14.7219H102.449V5.76258H104.171ZM103.305 5.13497C103.069 5.13497 102.868 5.0356 102.703 4.836C102.537 4.63802 102.454 4.4 102.454 4.12025C102.454 3.83775 102.537 3.59656 102.703 3.39709C102.868 3.19988 103.069 3.09961 103.305 3.09961C103.545 3.09961 103.75 3.19988 103.918 3.39709C104.087 3.59656 104.171 3.83775 104.171 4.12025C104.171 4.4 104.087 4.63802 103.918 4.836C103.75 5.03554 103.545 5.13497 103.305 5.13497Z" fill="white"/>
<path d="M109.362 15.4961C108.761 15.4961 108.201 15.3753 107.678 15.1343C107.154 14.8912 106.696 14.5594 106.3 14.1366C105.905 13.7133 105.594 13.2184 105.37 12.6565C105.144 12.0914 105.031 11.4888 105.031 10.8506C105.031 10.2057 105.144 9.60289 105.37 9.04016C105.594 8.47986 105.905 7.98576 106.3 7.56073C106.696 7.13533 107.154 6.8011 107.678 6.56016C108.201 6.31921 108.761 6.19824 109.362 6.19824C109.952 6.19824 110.523 6.3254 111.073 6.58159C111.623 6.83721 112.102 7.19894 112.514 7.66621L111.089 9.10799C110.621 8.57301 110.045 8.30432 109.361 8.30432C109.033 8.30432 108.728 8.37053 108.441 8.50141C108.155 8.63446 107.904 8.81619 107.686 9.05094C107.469 9.2834 107.299 9.55439 107.176 9.86068C107.054 10.1694 106.991 10.4996 106.991 10.8505C106.991 11.2016 107.054 11.5311 107.176 11.8383C107.299 12.1468 107.469 12.4155 107.686 12.6457C107.904 12.8781 108.155 13.0599 108.441 13.1915C108.728 13.3247 109.033 13.3901 109.361 13.3901C109.733 13.3901 110.082 13.3055 110.404 13.1361C110.727 12.9675 111.002 12.7219 111.235 12.4047L112.779 13.6925C112.364 14.263 111.857 14.7055 111.257 15.0227C110.659 15.3375 110.025 15.4961 109.362 15.4961Z" fill="white"/>
<path d="M116.125 15.4961C115.556 15.4961 115 15.4052 114.456 15.2237C113.912 15.0412 113.463 14.7879 113.108 14.4624L114.52 12.969C114.681 13.1175 114.907 13.2338 115.198 13.3161C115.49 13.3985 115.798 13.4385 116.125 13.4385C116.421 13.4385 116.698 13.3985 116.956 13.3161C117.165 13.2484 117.326 13.1598 117.44 13.0498C117.554 12.9374 117.609 12.7766 117.609 12.5657C117.609 12.4555 117.531 12.3577 117.374 12.2755C117.216 12.1908 117.014 12.1169 116.768 12.0493C116.522 11.9799 116.261 11.9145 115.986 11.8468C115.583 11.7559 115.19 11.6543 114.811 11.5381C114.431 11.4218 114.088 11.2694 113.784 11.0792C113.478 10.8884 113.236 10.639 113.054 10.3303C112.872 10.0192 112.781 9.61986 112.781 9.12713C112.781 8.37666 113.027 7.7463 113.52 7.23902C114.199 6.54548 115.134 6.19824 116.325 6.19824C116.894 6.19824 117.45 6.28991 117.994 6.46929C118.538 6.65102 118.988 6.90498 119.348 7.23295L117.93 8.72539C117.769 8.57766 117.543 8.46146 117.255 8.38057C116.966 8.30054 116.656 8.26053 116.325 8.26053C116.029 8.26053 115.754 8.30054 115.496 8.37902C115.285 8.44443 115.124 8.533 115.014 8.64536C114.902 8.75549 114.847 8.91796 114.847 9.12713C114.847 9.23961 114.926 9.33661 115.081 9.41899C115.236 9.50137 115.436 9.57749 115.682 9.64525C115.931 9.71295 116.191 9.78072 116.463 9.84619C116.869 9.93705 117.26 10.0409 117.64 10.1571C118.019 10.271 118.362 10.4258 118.666 10.6136C118.972 10.8037 119.214 11.0539 119.396 11.3641C119.577 11.6728 119.669 12.0745 119.669 12.5657C119.669 13.3185 119.422 13.9481 118.93 14.4554C118.252 15.149 117.315 15.496 116.125 15.496L116.125 15.4961Z" fill="white"/>
</svg>
