<svg width="77" height="77" viewBox="0 0 77 77" fill="none" xmlns="http://www.w3.org/2000/svg">
<rect width="77" height="77" rx="10" fill="#005BFF"/>
<rect x="0.18984" y="0.18984" width="76.6203" height="76.6203" rx="9.81016" stroke="white" stroke-opacity="0.14" stroke-width="0.379679"/>
<path d="M13.4663 42.7027C15.1237 42.4919 16.4627 41.1493 16.6741 39.4859C16.748 38.9182 16.6907 38.341 16.5069 37.799C16.323 37.2569 16.0174 36.7645 15.6137 36.3596C15.21 35.9548 14.7189 35.6484 14.1784 35.464C13.6378 35.2796 13.0623 35.2223 12.4961 35.2963C10.8373 35.5084 9.49837 36.851 9.28821 38.5131C9.21437 39.0808 9.27159 39.6579 9.45545 40.2C9.63931 40.742 9.94489 41.2345 10.3486 41.6393C10.7523 42.0442 11.2434 42.3506 11.784 42.535C12.3245 42.7193 12.9001 42.7767 13.4663 42.7027ZM13.6923 32.0358C15.288 32.2042 16.7777 32.9169 17.9123 34.0547C19.0469 35.1924 19.7576 36.6862 19.9256 38.2864C20.3631 42.7133 16.6834 46.4032 12.2674 45.9645C10.6719 45.7958 9.18251 45.083 8.04818 43.9453C6.91384 42.8075 6.20332 41.3138 6.03539 39.7139C5.59789 35.287 9.27764 31.5971 13.6923 32.0358ZM23.6715 32.3128H33.8899C34.2785 32.3128 34.4979 32.7581 34.2639 33.0683L27.1939 42.4217H32.7334C33.7432 42.4217 34.5375 43.3429 34.3287 44.3926C34.1754 45.1626 33.455 45.6875 32.6726 45.6875H21.5752C21.1905 45.6875 20.9725 45.2461 21.2038 44.94L28.2791 35.5786H23.7323C22.9498 35.5786 22.2294 35.0524 22.0761 34.2837C21.866 33.234 22.6616 32.3128 23.6715 32.3128ZM68.0174 32.3499C69.0721 32.1272 70 32.9278 70 33.9457V45.2157C70 45.6093 69.5466 45.828 69.24 45.5841L60.4253 38.5714V44.0572C60.4253 45.0752 59.4974 45.8757 58.4426 45.653C57.6866 45.494 57.1685 44.7875 57.1685 44.0135V32.7833C57.1685 32.3897 57.6218 32.171 57.9285 32.4149L66.7445 39.4276V33.9894C66.7445 33.2154 67.264 32.5103 68.0187 32.3499H68.0174ZM45.0653 32C50.4619 32 54.8369 35.1333 54.8369 38.9982C54.8369 42.8631 50.4619 45.9963 45.0653 45.9963C39.6686 45.9963 35.2936 42.8631 35.2936 38.9982C35.2936 35.1333 39.6686 32 45.0653 32ZM45.0653 35.2658C41.3366 35.2658 38.5504 37.2367 38.5504 38.9982C38.5504 40.7596 41.3366 42.7305 45.0653 42.7305C48.7939 42.7305 51.5801 40.761 51.5801 38.9982C51.5801 37.2354 48.7939 35.2658 45.0653 35.2658Z" fill="white"/>
</svg>
