<svg width="34" height="33" viewBox="0 0 34 33" fill="none" xmlns="http://www.w3.org/2000/svg">
<mask id="mask0_2094_7769" style="mask-type:luminance" maskUnits="userSpaceOnUse" x="0" y="0" width="34" height="33">
<path d="M0 0H33.0165V32.5994H0V0Z" fill="white"/>
</mask>
<g mask="url(#mask0_2094_7769)">
<path fill-rule="evenodd" clip-rule="evenodd" d="M32.6121 7.18871C32.8701 7.44343 33.0149 7.78886 33.0149 8.14903C33.0149 8.50921 32.8701 8.85464 32.6121 9.10936L19.5431 22.0133C19.2851 22.2679 18.9353 22.411 18.5705 22.411C18.2057 22.411 17.8559 22.2679 17.5979 22.0133L11.6921 16.1821L2.34702 25.409C2.08756 25.6565 1.74006 25.7934 1.37936 25.7903C1.01866 25.7872 0.673618 25.6443 0.418555 25.3925C0.163491 25.1407 0.0188114 24.8 0.015677 24.4438C0.0125426 24.0877 0.151204 23.7446 0.401797 23.4884L10.7195 13.3011C10.9774 13.0464 11.3273 12.9034 11.6921 12.9034C12.0568 12.9034 12.4067 13.0464 12.6647 13.3011L18.5705 19.1323L30.6669 7.18871C30.9249 6.93407 31.2748 6.79102 31.6395 6.79102C32.0043 6.79102 32.3542 6.93407 32.6121 7.18871Z" fill="#6162FD"/>
<path fill-rule="evenodd" clip-rule="evenodd" d="M22.0078 8.14932C22.0078 7.78908 22.1527 7.44359 22.4107 7.18885C22.6687 6.93412 23.0186 6.79102 23.3835 6.79102H31.6376C32.0025 6.79102 32.3524 6.93412 32.6104 7.18885C32.8684 7.44359 33.0133 7.78908 33.0133 8.14932V16.2992C33.0133 16.6594 32.8684 17.0049 32.6104 17.2596C32.3524 17.5144 32.0025 17.6575 31.6376 17.6575C31.2728 17.6575 30.9229 17.5144 30.6649 17.2596C30.4069 17.0049 30.2619 16.6594 30.2619 16.2992V9.50763H23.3835C23.0186 9.50763 22.6687 9.36452 22.4107 9.10979C22.1527 8.85506 22.0078 8.50957 22.0078 8.14932Z" fill="#6162FD"/>
</g>
</svg>
