<svg width="21" height="21" viewBox="0 0 21 21" fill="none" xmlns="http://www.w3.org/2000/svg">
<path d="M2 5.85714V10.4286H9.42857V3H4.85714C3.28 3 2 4.28 2 5.85714ZM5.71429 6.71429V6.14286C5.71429 5.82857 5.97143 5.57143 6.28571 5.57143C6.6 5.57143 6.85714 5.82857 6.85714 6.14286V6.71429H7.42857C7.74286 6.71429 8 6.97143 8 7.28571C8 7.6 7.74286 7.85714 7.42857 7.85714H6.85714V8.42857C6.85714 8.74286 6.6 9 6.28571 9C5.97143 9 5.71429 8.74286 5.71429 8.42857V7.85714H5.14286C4.82857 7.85714 4.57143 7.6 4.57143 7.28571C4.57143 6.97143 4.82857 6.71429 5.14286 6.71429H5.71429ZM2 16.1429C2 17.72 3.28 19 4.85714 19H9.42857V11.5714H2V16.1429ZM5.07429 14.3086C5.02138 14.2557 4.97942 14.1929 4.95078 14.1237C4.92215 14.0546 4.90742 13.9805 4.90742 13.9057C4.90742 13.8309 4.92215 13.7568 4.95078 13.6877C4.97942 13.6186 5.02138 13.5558 5.07429 13.5029C5.18113 13.396 5.32604 13.336 5.47714 13.336C5.55196 13.336 5.62605 13.3507 5.69517 13.3794C5.76429 13.408 5.8271 13.45 5.88 13.5029L6.28571 13.9086L6.69143 13.5029C6.74433 13.45 6.80714 13.408 6.87626 13.3794C6.94538 13.3507 7.01947 13.336 7.09429 13.336C7.1691 13.336 7.24319 13.3507 7.31231 13.3794C7.38143 13.408 7.44424 13.45 7.49714 13.5029C7.55005 13.5558 7.59201 13.6186 7.62064 13.6877C7.64928 13.7568 7.66401 13.8309 7.66401 13.9057C7.66401 13.9805 7.64928 14.0546 7.62064 14.1237C7.59201 14.1929 7.55005 14.2557 7.49714 14.3086L7.09143 14.7143L7.49714 15.12C7.72 15.3429 7.72 15.7029 7.49714 15.9257C7.38857 16.04 7.24 16.0914 7.09143 16.0914C7.017 16.0924 6.94316 16.0782 6.87439 16.0497C6.80562 16.0212 6.74337 15.979 6.69143 15.9257L6.28571 15.52L5.88 15.9257C5.82806 15.979 5.76581 16.0212 5.69704 16.0497C5.62827 16.0782 5.55443 16.0924 5.48 16.0914C5.33143 16.0914 5.18286 16.04 5.07429 15.9257C5.02131 15.8729 4.97929 15.8101 4.95061 15.7409C4.92194 15.6718 4.90717 15.5977 4.90717 15.5229C4.90717 15.448 4.92194 15.3739 4.95061 15.3048C4.97929 15.2357 5.02131 15.1729 5.07429 15.12L5.48 14.7143L5.07429 14.3086ZM15.1429 3H10.5714V10.4286H18V5.85714C18 4.28 16.72 3 15.1429 3ZM14.8571 7.85714H12.5714C12.2571 7.85714 12 7.6 12 7.28571C12 6.97143 12.2571 6.71429 12.5714 6.71429H14.8571C15.1714 6.71429 15.4286 6.97143 15.4286 7.28571C15.4286 7.6 15.1714 7.85714 14.8571 7.85714ZM10.5714 19H15.1429C16.72 19 18 17.72 18 16.1429V11.5714H10.5714V19ZM12.5714 13.2857H14.8571C15.1714 13.2857 15.4286 13.5429 15.4286 13.8571C15.4286 14.1714 15.1714 14.4286 14.8571 14.4286H12.5714C12.2571 14.4286 12 14.1714 12 13.8571C12 13.5429 12.2571 13.2857 12.5714 13.2857ZM12.5714 15H14.8571C15.1714 15 15.4286 15.2571 15.4286 15.5714C15.4286 15.8857 15.1714 16.1429 14.8571 16.1429H12.5714C12.2571 16.1429 12 15.8857 12 15.5714C12 15.2571 12.2571 15 12.5714 15Z" fill="#6162FD"/>
</svg>
