<svg width="21" height="21" viewBox="0 0 21 21" fill="none" xmlns="http://www.w3.org/2000/svg">
<path d="M6.18182 14.2605V15.5256L4.36753 16.5001C4.11771 16.3048 3.80011 16.1875 3.45455 16.1875C2.65251 16.1875 2 16.8183 2 17.5938C2 18.3692 2.65251 19 3.45455 19C4.25658 19 4.90909 18.3692 4.90909 17.5938C4.90909 17.5355 4.90498 17.4782 4.89782 17.4218L6.99215 16.2969C7.07718 16.2512 7.14804 16.1844 7.19737 16.1034C7.2467 16.0223 7.27272 15.93 7.27273 15.8359V13.8848L7.01316 14.0353C6.76189 14.181 6.47478 14.2587 6.18182 14.2605ZM10.5455 16.2905V15.4141H9.45455V16.2905C8.92207 16.4995 8.54545 17.0048 8.54545 17.5938C8.54545 18.3692 9.19796 19 10 19C10.802 19 11.4545 18.3692 11.4545 17.5938C11.4545 17.0048 11.078 16.4995 10.5455 16.2905ZM16.5455 16.1875C16.1999 16.1875 15.8823 16.3048 15.6325 16.5001L13.8182 15.5256V14.2605C13.5252 14.2587 13.2381 14.181 12.9869 14.0353L12.7273 13.8848V15.8359C12.7273 15.93 12.7533 16.0223 12.8026 16.1034C12.852 16.1844 12.9228 16.2512 13.0079 16.2969L15.1022 17.4218C15.0948 17.4788 15.091 17.5363 15.0909 17.5938C15.0909 18.3692 15.7434 19 16.5455 19C17.3475 19 18 18.3692 18 17.5938C18 16.8183 17.3475 16.1875 16.5455 16.1875ZM14.2145 13.0517L15.5565 11.7542C15.6425 11.671 15.6973 11.5625 15.7121 11.4457C15.727 11.329 15.7011 11.2108 15.6385 11.11L15.1401 10.3068C15.3096 9.99654 15.4485 9.67156 15.555 9.33614L16.4959 9.10872C16.6139 9.0802 16.7187 9.01435 16.7936 8.92166C16.8684 8.82896 16.9091 8.71473 16.9091 8.59712V6.76225C16.9091 6.64465 16.8684 6.53042 16.7936 6.43772C16.7187 6.34502 16.6139 6.27918 16.4959 6.25066L15.555 6.02323C15.4485 5.6878 15.3096 5.36281 15.14 5.05257L15.6385 4.24935C15.7011 4.1485 15.727 4.03033 15.7121 3.9136C15.6973 3.79688 15.6425 3.68831 15.5565 3.60515L14.2145 2.30771C14.1285 2.22455 14.0162 2.17157 13.8955 2.1572C13.7747 2.14283 13.6525 2.16789 13.5482 2.22839L12.7173 2.71032C12.3965 2.54643 12.0603 2.41211 11.7134 2.30915L11.4781 1.39945C11.4486 1.28535 11.3805 1.18406 11.2846 1.11168C11.1888 1.0393 11.0706 0.999993 10.9489 1H9.05105C8.92941 1 8.81126 1.03931 8.71538 1.11169C8.6195 1.18407 8.55139 1.28535 8.52189 1.39945L8.28665 2.30915C7.93973 2.41211 7.60361 2.54643 7.28273 2.71032L6.45185 2.22839C6.34755 2.1679 6.22532 2.14284 6.10459 2.15721C5.98387 2.17158 5.87158 2.22455 5.78556 2.30771L4.44356 3.60515C4.35755 3.68831 4.30275 3.79688 4.28789 3.9136C4.27302 4.03033 4.29894 4.1485 4.36153 4.24935L4.86 5.05257C4.69048 5.36281 4.55155 5.6878 4.44505 6.02323L3.50411 6.25066C3.38609 6.27917 3.28132 6.34501 3.20645 6.43771C3.13158 6.53041 3.09091 6.64464 3.09091 6.76225V8.59712C3.09091 8.71473 3.13157 8.82896 3.20644 8.92166C3.2813 9.01435 3.38606 9.0802 3.50407 9.10872L4.44502 9.33614C4.55151 9.67156 4.69042 9.99654 4.85993 10.3068L4.36149 11.11C4.29891 11.2108 4.27299 11.329 4.28785 11.4457C4.30271 11.5625 4.35751 11.671 4.44353 11.7542L5.78553 13.0517C5.87154 13.1348 5.98384 13.1878 6.10457 13.2022C6.22531 13.2165 6.34754 13.1915 6.45185 13.131L7.28265 12.6491C7.60354 12.813 7.93968 12.9473 8.28662 13.0503L8.52185 13.96C8.55136 14.0741 8.61946 14.1753 8.71534 14.2477C8.81122 14.3201 8.92937 14.3594 9.05102 14.3594H10.9489C11.0706 14.3594 11.1887 14.3201 11.2846 14.2477C11.3805 14.1753 11.4486 14.0741 11.4781 13.96L11.7133 13.0503C12.0602 12.9473 12.3964 12.813 12.7173 12.6491L13.5481 13.131C13.6524 13.1915 13.7746 13.2166 13.8954 13.2022C14.0161 13.1878 14.1285 13.1348 14.2145 13.0517ZM10 10.1406C8.59418 10.1406 7.45455 9.03883 7.45455 7.67969C7.45455 6.32055 8.59418 5.21875 10 5.21875C11.4058 5.21875 12.5455 6.32055 12.5455 7.67969C12.5455 9.03883 11.4058 10.1406 10 10.1406Z" fill="#6162FD"/>
</svg>
