<svg width="19" height="19" viewBox="0 0 19 19" fill="none" xmlns="http://www.w3.org/2000/svg">
<path d="M15.9062 1.5H3.09375C2.49063 1.5 2 1.99063 2 2.59375V4.15625C2 4.75938 2.49063 5.25 3.09375 5.25H15.9062C16.5094 5.25 17 4.75938 17 4.15625V2.59375C17 1.99063 16.5094 1.5 15.9062 1.5ZM3.09375 16.5H7.78125C8.38438 16.5 8.875 16.0094 8.875 15.4062V7.59375C8.875 6.99062 8.38438 6.5 7.78125 6.5H3.09375C2.49063 6.5 2 6.99062 2 7.59375V15.4062C2 16.0094 2.49063 16.5 3.09375 16.5ZM15.9062 6.5H11.2188C10.6156 6.5 10.125 6.99062 10.125 7.59375V9.78125C10.125 10.3844 10.6156 10.875 11.2188 10.875H15.9062C16.5094 10.875 17 10.3844 17 9.78125V7.59375C17 6.99062 16.5094 6.5 15.9062 6.5ZM15.9062 12.125H11.2188C10.6156 12.125 10.125 12.6156 10.125 13.2188V15.4062C10.125 16.0094 10.6156 16.5 11.2188 16.5H15.9062C16.5094 16.5 17 16.0094 17 15.4062V13.2188C17 12.6156 16.5094 12.125 15.9062 12.125Z" fill="white"/>
</svg>
