<svg width="21" height="21" viewBox="0 0 21 21" fill="none" xmlns="http://www.w3.org/2000/svg">
<path d="M7.5 7C11.0899 7 14 5.65685 14 4C14 2.34315 11.0899 1 7.5 1C3.91015 1 1 2.34315 1 4C1 5.65685 3.91015 7 7.5 7Z" fill="white"/>
<path d="M6.86704 10.5084C7.39086 9.40248 8.17724 8.44045 9.15813 7.70553C8.68471 7.74576 8.20813 7.77258 7.72917 7.77258C5.10796 7.77258 2.47171 7.16752 1 6V7.77258C1 9.17755 3.55867 10.334 6.86704 10.5084ZM6.14583 13.6891C6.14583 12.9854 6.25033 12.307 6.43321 11.6609C4.26879 11.4952 2.22787 10.9186 1 9.94433V11.7169C1 13.0233 3.21271 14.1143 6.18225 14.4014C6.15934 14.1646 6.14719 13.9269 6.14583 13.6891ZM13.6667 7.37815C10.1746 7.37815 7.33333 10.2094 7.33333 13.6891C7.33333 17.1688 10.1746 20 13.6667 20C17.1587 20 20 17.1688 20 13.6891C20 10.2094 17.1587 7.37815 13.6667 7.37815ZM13.3658 13.0974H13.9675C14.388 13.0969 14.7934 13.2534 15.1037 13.5362C15.4139 13.8191 15.6065 14.2075 15.6433 14.6249C15.68 15.0423 15.5584 15.4583 15.3024 15.7906C15.0464 16.123 14.6746 16.3476 14.2604 16.4201V17.041C14.2604 17.1979 14.1979 17.3484 14.0865 17.4593C13.9752 17.5703 13.8241 17.6326 13.6667 17.6326C13.5092 17.6326 13.3582 17.5703 13.2468 17.4593C13.1355 17.3484 13.0729 17.1979 13.0729 17.041V16.4501H12.2812C12.1238 16.4501 11.9728 16.3878 11.8614 16.2768C11.7501 16.1659 11.6875 16.0154 11.6875 15.8585C11.6875 15.7015 11.7501 15.5511 11.8614 15.4401C11.9728 15.3291 12.1238 15.2668 12.2812 15.2668H13.9675C14.032 15.2668 14.0958 15.2542 14.1553 15.2296C14.2149 15.205 14.269 15.169 14.3146 15.1236C14.3602 15.0781 14.3963 15.0242 14.421 14.9649C14.4456 14.9055 14.4583 14.8419 14.4583 14.7777C14.4591 14.7129 14.4469 14.6486 14.4226 14.5885C14.3983 14.5284 14.3623 14.4736 14.3167 14.4275C14.2711 14.3813 14.2167 14.3445 14.1568 14.3193C14.0969 14.2942 14.0325 14.281 13.9675 14.2807H13.3658C12.9453 14.2813 12.5399 14.1247 12.2297 13.8419C11.9194 13.5591 11.7269 13.1706 11.6901 12.7532C11.6533 12.3358 11.7749 11.9199 12.0309 11.5875C12.287 11.2551 12.6588 11.0305 13.0729 10.958V10.3364C13.0729 10.1795 13.1355 10.029 13.2468 9.91804C13.3582 9.80708 13.5092 9.74475 13.6667 9.74475C13.8241 9.74475 13.9752 9.80708 14.0865 9.91804C14.1979 10.029 14.2604 10.1795 14.2604 10.3364V10.928H15.0521C15.2096 10.928 15.3606 10.9904 15.4719 11.1013C15.5833 11.2123 15.6458 11.3628 15.6458 11.5197C15.6458 11.6766 15.5833 11.8271 15.4719 11.9381C15.3606 12.049 15.2096 12.1113 15.0521 12.1113H13.3658C13.2357 12.1113 13.1108 12.1629 13.0188 12.2546C12.9267 12.3463 12.875 12.4707 12.875 12.6004C12.875 12.8781 13.0951 13.0974 13.3658 13.0974Z" fill="white"/>
</svg>
