<svg width="21" height="21" viewBox="0 0 21 21" fill="none" xmlns="http://www.w3.org/2000/svg">
<path d="M4.5 7H3.5C2.67157 7 2 7.82081 2 8.83333V16.1667C2 17.1792 2.67157 18 3.5 18H4.5C5.32843 18 6 17.1792 6 16.1667V8.83333C6 7.82081 5.32843 7 4.5 7Z" fill="white"/>
<path d="M11.125 4H9.875C8.83947 4 8 4.7835 8 5.75V16.25C8 17.2165 8.83947 18 9.875 18H11.125C12.1605 18 13 17.2165 13 16.25V5.75C13 4.7835 12.1605 4 11.125 4Z" fill="white"/>
<path d="M17.5 9H16.5C15.6716 9 15 9.86345 15 10.9286V16.0714C15 17.1365 15.6716 18 16.5 18H17.5C18.3284 18 19 17.1365 19 16.0714V10.9286C19 9.86345 18.3284 9 17.5 9Z" fill="white"/>
</svg>
