<svg width="21" height="21" viewBox="0 0 21 21" fill="none" xmlns="http://www.w3.org/2000/svg">
<path d="M16.5951 15.7934L12.1585 11.8732C13.7312 9.66667 13.52 6.61502 11.5716 4.64319C10.5153 3.58685 9.10681 3 7.60446 3C6.10211 3 4.69366 3.58685 3.63732 4.64319C1.45423 6.82629 1.45423 10.3944 3.63732 12.5775C4.74061 13.6808 6.17253 14.2207 7.60446 14.2207C8.75469 14.2207 9.88145 13.8685 10.8674 13.1643L14.7876 17.5775C15.0223 17.8357 15.3509 18 15.7031 18H15.75C16.1021 18 16.4073 17.8592 16.642 17.6244C16.9002 17.3662 17.0176 17.0376 17.0176 16.6854C16.9941 16.3568 16.8533 16.0282 16.5951 15.7934ZM3.37911 8.61033C3.37911 6.28638 5.28052 4.38498 7.60446 4.38498C8.75469 4.38498 9.81103 4.85446 10.5857 5.60563C11.3369 6.38028 11.8063 7.41315 11.8063 8.58685C11.8063 9.76056 11.3369 10.8169 10.5622 11.5681C9.78756 12.3192 8.73122 12.8122 7.58099 12.8122C5.25704 12.8357 3.37911 10.9343 3.37911 8.61033Z" fill="#6162FD"/>
<path d="M7.83984 4.85449V8.07045L10.1168 5.79346C9.48304 5.25355 8.70839 4.90144 7.83984 4.85449Z" fill="#6162FD"/>
<path d="M7.39229 8.70426C7.39229 8.68078 7.36882 8.65731 7.36882 8.61036V4.85449C5.39699 4.97186 3.82422 6.61506 3.82422 8.61036C3.82422 10.6996 5.51436 12.3897 7.60356 12.3897C8.566 12.3897 9.43455 12.0376 10.1153 11.4273L7.43924 8.77468C7.41577 8.75121 7.39229 8.72773 7.39229 8.70426Z" fill="#6162FD" fill-opacity="0.72"/>
<path d="M10.4219 6.09863L7.93359 8.61037L10.4453 11.1221C11.0087 10.4414 11.3843 9.57281 11.3843 8.61037C11.3843 7.64793 11.0087 6.77938 10.4219 6.09863Z" fill="#6162FD" fill-opacity="0.62"/>
</svg>
