<svg width="16" height="15" viewBox="0 0 16 15" fill="none" xmlns="http://www.w3.org/2000/svg">
<path d="M14.5951 12.7934L10.1585 8.87324C11.7312 6.66667 11.52 3.61502 9.5716 1.64319C8.51526 0.586854 7.10681 0 5.60446 0C4.10211 0 2.69366 0.586854 1.63732 1.64319C-0.545775 3.82629 -0.545775 7.39437 1.63732 9.57746C2.74061 10.6808 4.17253 11.2207 5.60446 11.2207C6.75469 11.2207 7.88145 10.8685 8.86737 10.1643L12.7876 14.5775C13.0223 14.8357 13.3509 15 13.7031 15H13.75C14.1021 15 14.4073 14.8592 14.642 14.6244C14.9002 14.3662 15.0176 14.0376 15.0176 13.6854C14.9941 13.3568 14.8533 13.0282 14.5951 12.7934ZM1.37911 5.61033C1.37911 3.28638 3.28052 1.38498 5.60446 1.38498C6.75469 1.38498 7.81103 1.85446 8.58568 2.60563C9.33685 3.38028 9.80634 4.41315 9.80634 5.58685C9.80634 6.76056 9.33685 7.8169 8.56221 8.56808C7.78756 9.31925 6.73122 9.81221 5.58099 9.81221C3.25704 9.83568 1.37911 7.93427 1.37911 5.61033Z" fill="white"/>
<path d="M5.83984 1.85449V5.07045L8.11684 2.79346C7.48304 2.25355 6.70839 1.90144 5.83984 1.85449Z" fill="white"/>
<path d="M5.39229 5.70426C5.39229 5.68078 5.36882 5.65731 5.36882 5.61036V1.85449C3.39699 1.97186 1.82422 3.61506 1.82422 5.61036C1.82422 7.69956 3.51436 9.3897 5.60356 9.3897C6.566 9.3897 7.43455 9.03759 8.1153 8.42726L5.43924 5.77468C5.41577 5.75121 5.39229 5.72773 5.39229 5.70426Z" fill="white" fill-opacity="0.72"/>
<path d="M8.42186 3.09863L5.93359 5.61037L8.44533 8.12211C9.00871 7.44136 9.3843 6.57281 9.3843 5.61037C9.3843 4.64793 9.00871 3.77938 8.42186 3.09863Z" fill="white" fill-opacity="0.62"/>
</svg>
