<svg width="21" height="21" viewBox="0 0 21 21" fill="none" xmlns="http://www.w3.org/2000/svg">
<path fill-rule="evenodd" clip-rule="evenodd" d="M18 6.53488C18 5.59737 17.6276 4.69826 16.9647 4.03534C16.3017 3.37242 15.4026 3 14.4651 3H5.53488C4.59737 3 3.69826 3.37242 3.03534 4.03534C2.37242 4.69826 2 5.59737 2 6.53488V15.4651C2 16.4026 2.37242 17.3017 3.03534 17.9647C3.69826 18.6276 4.59737 19 5.53488 19H14.4651C15.4026 19 16.3017 18.6276 16.9647 17.9647C17.6276 17.3017 18 16.4026 18 15.4651V6.53488ZM7.5814 13.9767V11C7.5814 10.852 7.52259 10.71 7.41792 10.6053C7.31325 10.5007 7.17128 10.4419 7.02326 10.4419C6.87523 10.4419 6.73326 10.5007 6.62859 10.6053C6.52392 10.71 6.46512 10.852 6.46512 11V13.9767C6.46512 14.1248 6.52392 14.2667 6.62859 14.3714C6.73326 14.4761 6.87523 14.5349 7.02326 14.5349C7.17128 14.5349 7.31325 14.4761 7.41792 14.3714C7.52259 14.2667 7.5814 14.1248 7.5814 13.9767ZM13.5349 13.9767V9.51163C13.5349 9.3636 13.4761 9.22164 13.3714 9.11696C13.2667 9.01229 13.1248 8.95349 12.9767 8.95349C12.8287 8.95349 12.6868 9.01229 12.5821 9.11696C12.4774 9.22164 12.4186 9.3636 12.4186 9.51163V13.9767C12.4186 14.1248 12.4774 14.2667 12.5821 14.3714C12.6868 14.4761 12.8287 14.5349 12.9767 14.5349C13.1248 14.5349 13.2667 14.4761 13.3714 14.3714C13.4761 14.2667 13.5349 14.1248 13.5349 13.9767ZM10.5581 13.9767V8.02326C10.5581 7.87523 10.4993 7.73326 10.3947 7.62859C10.29 7.52392 10.148 7.46512 10 7.46512C9.85197 7.46512 9.71001 7.52392 9.60534 7.62859C9.50066 7.73326 9.44186 7.87523 9.44186 8.02326V13.9767C9.44186 14.1248 9.50066 14.2667 9.60534 14.3714C9.71001 14.4761 9.85197 14.5349 10 14.5349C10.148 14.5349 10.29 14.4761 10.3947 14.3714C10.4993 14.2667 10.5581 14.1248 10.5581 13.9767Z" fill="#6162FD"/>
</svg>
