<svg width="96" height="16" viewBox="0 0 96 16" fill="none" xmlns="http://www.w3.org/2000/svg">
<path d="M7.12207 1.60978C7.50107 0.914843 8.49893 0.914845 8.87793 1.60979L10.2649 4.15302C10.4088 4.41675 10.6635 4.60185 10.9588 4.65714L13.8062 5.19036C14.5842 5.33606 14.8926 6.28508 14.3487 6.86027L12.3586 8.9653C12.1522 9.18358 12.0549 9.48308 12.0936 9.78098L12.4663 12.6538C12.5682 13.4387 11.7609 14.0253 11.0458 13.6858L8.42883 12.4436C8.15745 12.3147 7.84255 12.3147 7.57117 12.4436L4.95418 13.6858C4.23909 14.0253 3.43181 13.4387 3.53367 12.6538L3.90644 9.78098C3.94509 9.48308 3.84778 9.18358 3.64141 8.96529L1.65125 6.86027C1.10744 6.28507 1.41579 5.33606 2.19384 5.19036L5.04121 4.65714C5.33648 4.60185 5.59124 4.41675 5.73507 4.15302L7.12207 1.60978Z" fill="#FFC918"/>
<path d="M27.1221 1.60978C27.5011 0.914843 28.4989 0.914845 28.8779 1.60979L30.2649 4.15302C30.4088 4.41675 30.6635 4.60185 30.9588 4.65714L33.8062 5.19036C34.5842 5.33606 34.8926 6.28508 34.3487 6.86027L32.3586 8.9653C32.1522 9.18358 32.0549 9.48308 32.0936 9.78098L32.4663 12.6538C32.5682 13.4387 31.7609 14.0253 31.0458 13.6858L28.4288 12.4436C28.1575 12.3147 27.8425 12.3147 27.5712 12.4436L24.9542 13.6858C24.2391 14.0253 23.4318 13.4387 23.5337 12.6538L23.9064 9.78098C23.9451 9.48308 23.8478 9.18358 23.6414 8.96529L21.6513 6.86027C21.1074 6.28507 21.4158 5.33606 22.1938 5.19036L25.0412 4.65714C25.3365 4.60185 25.5912 4.41675 25.7351 4.15302L27.1221 1.60978Z" fill="#FFC918"/>
<path d="M47.1221 1.60978C47.5011 0.914843 48.4989 0.914845 48.8779 1.60979L50.2649 4.15302C50.4088 4.41675 50.6635 4.60185 50.9588 4.65714L53.8062 5.19036C54.5842 5.33606 54.8926 6.28508 54.3487 6.86027L52.3586 8.9653C52.1522 9.18358 52.0549 9.48308 52.0936 9.78098L52.4663 12.6538C52.5682 13.4387 51.7609 14.0253 51.0458 13.6858L48.4288 12.4436C48.1575 12.3147 47.8425 12.3147 47.5712 12.4436L44.9542 13.6858C44.2391 14.0253 43.4318 13.4387 43.5337 12.6538L43.9064 9.78098C43.9451 9.48308 43.8478 9.18358 43.6414 8.96529L41.6513 6.86027C41.1074 6.28507 41.4158 5.33606 42.1938 5.19036L45.0412 4.65714C45.3365 4.60185 45.5912 4.41675 45.7351 4.15302L47.1221 1.60978Z" fill="#FFC918"/>
<path d="M67.1221 1.60978C67.5011 0.914843 68.4989 0.914845 68.8779 1.60979L70.2649 4.15302C70.4088 4.41675 70.6635 4.60185 70.9588 4.65714L73.8062 5.19036C74.5842 5.33606 74.8926 6.28508 74.3487 6.86027L72.3586 8.9653C72.1522 9.18358 72.0549 9.48308 72.0936 9.78098L72.4663 12.6538C72.5682 13.4387 71.7609 14.0253 71.0458 13.6858L68.4288 12.4436C68.1575 12.3147 67.8425 12.3147 67.5712 12.4436L64.9542 13.6858C64.2391 14.0253 63.4318 13.4387 63.5337 12.6538L63.9064 9.78098C63.9451 9.48308 63.8478 9.18358 63.6414 8.96529L61.6513 6.86027C61.1074 6.28507 61.4158 5.33606 62.1938 5.19036L65.0412 4.65714C65.3365 4.60185 65.5912 4.41675 65.7351 4.15302L67.1221 1.60978Z" fill="#FFC918"/>
<path d="M87.1221 1.60978C87.5011 0.914843 88.4989 0.914845 88.8779 1.60979L90.2649 4.15302C90.4088 4.41675 90.6635 4.60185 90.9588 4.65714L93.8062 5.19036C94.5842 5.33606 94.8926 6.28508 94.3487 6.86027L92.3586 8.9653C92.1522 9.18358 92.0549 9.48308 92.0936 9.78098L92.4663 12.6538C92.5682 13.4387 91.7609 14.0253 91.0458 13.6858L88.4288 12.4436C88.1575 12.3147 87.8425 12.3147 87.5712 12.4436L84.9542 13.6858C84.2391 14.0253 83.4318 13.4387 83.5337 12.6538L83.9064 9.78098C83.9451 9.48308 83.8478 9.18358 83.6414 8.96529L81.6513 6.86027C81.1074 6.28507 81.4158 5.33606 82.1938 5.19036L85.0412 4.65714C85.3365 4.60185 85.5912 4.41675 85.7351 4.15302L87.1221 1.60978Z" fill="#FFC918"/>
</svg>
