<svg width="18" height="15" viewBox="0 0 18 15" fill="none" xmlns="http://www.w3.org/2000/svg">
<path d="M16.466 0.132435C16.466 0.132435 18.131 -0.516848 17.9917 1.05986C17.9459 1.70914 17.5297 3.98185 17.2057 6.43969L16.0957 13.7211C16.0957 13.7211 16.0031 14.7878 15.1704 14.9734C14.3381 15.1585 13.0892 14.3241 12.8578 14.1385C12.6727 13.9992 9.38893 11.9121 8.23263 10.8921C7.90863 10.6135 7.53834 10.0573 8.27892 9.40797L13.1355 4.76999C13.6905 4.21285 14.2455 2.91428 11.933 4.49142L5.45718 8.89711C5.45718 8.89711 4.71703 9.36125 3.32973 8.94383L0.322843 8.01597C0.322843 8.01597 -0.787167 7.32041 1.10928 6.62484C5.73489 4.44513 11.4242 2.21914 16.4656 0.132007" fill="black"/>
</svg>
