<svg width="77" height="77" viewBox="0 0 77 77" fill="none" xmlns="http://www.w3.org/2000/svg">
<rect width="77" height="77" rx="10" fill="#E313BF"/>
<path d="M50.8139 33.3785C49.0984 33.3785 47.5635 33.8805 46.2693 34.7074V27H42.6277V41.204C42.6277 45.5154 46.2994 49 50.7838 49C55.2681 49 59 45.545 59 41.1745C59 36.804 55.3885 33.3785 50.8139 33.3785ZM34.5228 42.2081L31.1821 33.9396H28.6239L25.3134 42.2081L21.9727 33.9396H18L23.8387 48.5275H26.3968L29.9181 39.8456L33.4393 48.5275H35.9975L41.806 33.9396H37.8635L34.5228 42.2081ZM50.8139 45.545C48.346 45.545 46.2693 43.655 46.2693 41.204C46.2693 38.753 48.2256 36.8926 50.8139 36.8926C53.4021 36.8926 55.3885 38.8121 55.3885 41.204C55.3885 43.596 53.3118 45.545 50.8139 45.545Z" fill="white"/>
</svg>
