<svg width="19" height="19" viewBox="0 0 19 19" fill="none" xmlns="http://www.w3.org/2000/svg">
<path fill-rule="evenodd" clip-rule="evenodd" d="M9.40664 0C14.6015 0 18.8129 4.21138 18.8129 9.40625C18.8129 14.6011 14.6015 18.8125 9.40664 18.8125C7.77914 18.8125 6.24789 18.3986 4.91176 17.6706L0.764264 18.3662C0.662037 18.3833 0.557224 18.3759 0.458406 18.3447C0.359588 18.3134 0.269575 18.2592 0.195738 18.1865C0.1219 18.1138 0.0663383 18.0246 0.0336005 17.9262C0.000862765 17.8279 -0.00811959 17.7232 0.00738894 17.6208L0.707389 12.992C0.238454 11.8548 -0.00178933 10.6363 0.000388926 9.40625C0.000388926 4.21138 4.21176 0 9.40664 0ZM5.85676 4.76875C5.21364 4.76875 4.68076 5.31125 4.78051 5.9815C4.96951 7.238 5.52776 9.55325 7.18851 11.2262C8.92451 12.9754 11.4086 13.7235 12.7535 14.0184C13.45 14.1715 14.0441 13.6202 14.0441 12.9404V11.3444C14.0442 11.2913 14.0281 11.2396 13.9981 11.1958C13.9681 11.1521 13.9256 11.1185 13.8761 11.0994L12.1611 10.4405C12.1148 10.4228 12.0645 10.4185 12.0159 10.4283L10.286 10.766C9.17039 10.1885 8.49489 9.541 8.08976 8.56537L8.41526 6.80225C8.42398 6.75534 8.41975 6.70694 8.40301 6.66225L7.75989 4.93937C7.74122 4.88941 7.70778 4.84632 7.66401 4.81584C7.62024 4.78536 7.56823 4.76893 7.51489 4.76875H5.85676Z" fill="white"/>
</svg>
