<svg width="1072" height="985" viewBox="0 0 1072 985" fill="none" xmlns="http://www.w3.org/2000/svg">
<path opacity="0.04" d="M666 392.5C773.5 385 916.5 182 736.5 36" stroke="white"/>
<path opacity="0.3" d="M737.681 37.5631C737.879 37.2852 738.265 37.2208 738.543 37.4199C770.857 60.6275 795.49 92.9791 809.263 130.313C823.108 167.841 825.339 208.667 815.667 247.48C805.994 286.293 784.866 321.297 755.03 347.94C725.348 374.445 688.415 391.454 648.989 396.784C648.65 396.83 648.34 396.592 648.295 396.253C648.25 395.915 648.489 395.604 648.827 395.559C688.007 390.261 724.71 373.358 754.207 347.018C783.858 320.541 804.855 285.753 814.467 247.181C824.08 208.609 821.862 168.036 808.103 130.741C794.416 93.6397 769.937 61.4896 737.825 38.4262C737.548 38.2271 737.483 37.841 737.681 37.5631Z" fill="#D9D9D9"/>
<path d="M721.639 32.145C721.974 30.8167 723.325 30.0118 724.651 30.3555C804.724 51.1078 876.966 94.9098 932.4 156.353C988.389 218.411 1024.72 295.678 1036.79 378.383C1048.87 461.089 1036.15 545.517 1000.24 620.992C964.687 695.721 907.985 758.349 837.188 801.129C836.016 801.838 834.491 801.453 833.79 800.276C833.088 799.099 833.474 797.576 834.647 796.867C904.601 754.59 960.628 692.703 995.759 618.861C1031.25 544.272 1043.82 460.834 1031.88 379.1C1019.95 297.366 984.047 221.006 928.716 159.677C873.939 98.962 802.556 55.6774 723.435 35.1658C722.108 34.822 721.303 33.4733 721.639 32.145Z" fill="#6162FD"/>
<path opacity="0.6" d="M489.537 28.0121C489.476 27.7464 489.211 27.5805 488.946 27.6417C405.968 46.7716 330.702 90.524 273.013 153.17C215.213 215.938 177.768 294.731 165.602 379.186C153.437 463.64 167.122 549.799 204.857 626.328C242.518 702.709 302.377 765.926 376.582 807.697C376.819 807.831 377.12 807.746 377.254 807.509C377.387 807.271 377.302 806.97 377.065 806.836C303.034 765.163 243.316 702.094 205.742 625.891C168.095 549.541 154.442 463.584 166.579 379.326C178.716 295.069 216.074 216.46 273.739 153.839C331.293 91.3392 406.383 47.6891 489.166 28.6038C489.432 28.5425 489.598 28.2777 489.537 28.0121Z" fill="url(#paint0_linear_429_2685)"/>
<path opacity="0.6" d="M489.232 28.7704C489.149 28.5329 488.889 28.4078 488.651 28.4913C434.921 47.3839 387.905 81.6161 353.424 126.956C318.852 172.418 298.407 227.04 294.634 284.029C290.861 341.018 303.926 397.859 332.204 447.481C360.406 496.971 402.499 537.103 453.27 562.914C453.494 563.028 453.768 562.938 453.882 562.714C453.996 562.49 453.906 562.215 453.681 562.101C403.07 536.371 361.109 496.365 332.995 447.03C304.806 397.563 291.782 340.9 295.543 284.089C299.305 227.278 319.685 172.827 354.149 127.508C388.522 82.3099 435.39 48.1849 488.952 29.3513C489.19 29.2679 489.315 29.0079 489.232 28.7704Z" fill="url(#paint1_linear_429_2685)"/>
<path d="M726.234 35.7154C726.332 35.4839 726.6 35.3763 726.831 35.4753C778.395 57.5339 822.498 94.012 853.837 140.531C885.261 187.176 902.508 241.921 903.496 298.155C904.484 354.389 889.17 409.706 859.403 457.426C829.717 505.017 786.923 543.021 736.166 566.877C735.938 566.984 735.667 566.886 735.56 566.658C735.453 566.43 735.552 566.159 735.78 566.052C786.378 542.271 829.037 504.385 858.63 456.944C888.304 409.373 903.57 354.229 902.585 298.171C901.6 242.113 884.407 187.539 853.081 141.04C821.84 94.667 777.876 58.3033 726.474 36.3135C726.243 36.2146 726.135 35.9469 726.234 35.7154Z" fill="#6162FD"/>
<path opacity="0.6" d="M490.115 28.0844C489.996 27.8832 489.737 27.8166 489.536 27.9359C455.772 47.986 428.681 77.5662 411.668 112.965C394.595 148.491 388.439 188.283 393.98 227.307C399.522 266.332 416.511 302.836 442.799 332.206C468.993 361.47 503.247 382.339 541.258 392.198C541.484 392.256 541.715 392.12 541.773 391.894C541.832 391.668 541.695 391.437 541.469 391.378C503.62 381.561 469.512 360.781 443.429 331.641C417.253 302.397 400.336 266.047 394.818 227.188C389.301 188.329 395.43 148.707 412.431 113.332C429.371 78.0836 456.346 48.6294 489.966 28.6644C490.167 28.5451 490.234 28.2855 490.115 28.0844Z" fill="url(#paint2_linear_429_2685)"/>
<line x1="607.511" y1="47" x2="607.511" y2="345" stroke="url(#paint3_linear_429_2685)" stroke-width="1.022"/>
<line x1="902" y1="397.5" x2="1072" y2="397.5" stroke="white" stroke-opacity="0.18"/>
<line x1="608" y1="593.5" x2="1072" y2="593.5" stroke="white" stroke-opacity="0.18"/>
<line x1="608" y1="780.5" x2="1072" y2="780.5" stroke="white" stroke-opacity="0.18"/>
<line x1="916" y1="265.5" x2="1072" y2="265.5" stroke="white" stroke-opacity="0.18"/>
<line x1="-4.37114e-08" y1="392.5" x2="527" y2="392.5" stroke="white" stroke-opacity="0.18"/>
<line x1="61" y1="557.5" x2="165" y2="557.5" stroke="white" stroke-opacity="0.18"/>
<line x1="44" y1="691.5" x2="230" y2="691.5" stroke="white" stroke-opacity="0.18"/>
<line x1="819" y1="118.5" x2="1072" y2="118.5" stroke="white" stroke-opacity="0.18"/>
<line x1="74" y1="118.5" x2="394" y2="118.5" stroke="white" stroke-opacity="0.18"/>
<line x1="74" y1="257.5" x2="284" y2="257.5" stroke="white" stroke-opacity="0.18"/>
<circle cx="901" cy="265" r="5" fill="#6162FD"/>
<circle cx="804" cy="119" r="5" fill="#6162FD"/>
<circle cx="409" cy="119" r="5" fill="#6162FD"/>
<circle cx="299" cy="258" r="5" fill="#6162FD"/>
<circle cx="540" cy="392" r="5" fill="#6162FD"/>
<circle cx="180" cy="558" r="5" fill="#6162FD"/>
<circle cx="245" cy="691" r="5" fill="#6162FD"/>
<circle cx="887" cy="397" r="5" fill="#6162FD"/>
<circle cx="606.5" cy="150.5" r="25.5" fill="white"/>
<circle cx="407.5" cy="285.5" r="25.5" fill="white"/>
<circle cx="799.5" cy="285.5" r="25.5" fill="white"/>
<g clip-path="url(#clip0_429_2685)">
<path d="M809.342 288.411L807.319 286.83C807.345 286.586 807.367 286.301 807.367 285.999C807.367 285.698 807.346 285.412 807.319 285.169L809.343 283.586C809.719 283.289 809.822 282.762 809.583 282.323L807.48 278.685C807.255 278.274 806.763 278.063 806.263 278.248L803.877 279.206C803.42 278.876 802.94 278.597 802.445 278.374L802.082 275.843C802.022 275.363 801.604 275 801.11 275H796.893C796.399 275 795.982 275.363 795.923 275.836L795.559 278.376C795.079 278.592 794.607 278.867 794.129 279.207L791.737 278.247C791.289 278.074 790.752 278.268 790.53 278.677L788.424 282.32C788.176 282.739 788.278 283.285 788.662 283.589L790.685 285.17C790.653 285.479 790.637 285.748 790.637 286C790.637 286.252 790.653 286.521 790.685 286.831L788.661 288.413C788.285 288.711 788.183 289.238 788.422 289.676L790.525 293.314C790.75 293.724 791.237 293.936 791.742 293.751L794.128 292.793C794.584 293.123 795.064 293.401 795.559 293.625L795.922 296.155C795.982 296.637 796.399 297 796.894 297H801.111C801.605 297 802.023 296.637 802.082 296.164L802.445 293.625C802.926 293.408 803.397 293.133 803.875 292.792L806.268 293.753C806.382 293.798 806.504 293.821 806.627 293.821C806.983 293.821 807.31 293.627 807.475 293.324L809.587 289.667C809.822 289.238 809.719 288.711 809.342 288.411ZM799.002 289.667C796.979 289.667 795.335 288.022 795.335 286C795.335 283.978 796.979 282.333 799.002 282.333C801.024 282.333 802.668 283.978 802.668 286C802.668 288.022 801.024 289.667 799.002 289.667Z" fill="#0B0B0B"/>
</g>
<g clip-path="url(#clip1_429_2685)">
<path d="M603.333 147.334C607.53 147.334 610.666 145.675 610.666 144.191C610.666 142.708 607.53 141.049 603.333 141.049C599.136 141.049 596 142.708 596 144.191C596 145.675 599.136 147.334 603.333 147.334ZM603.333 159.905C603.946 159.905 604.535 159.869 605.096 159.805C604.62 159.193 604.23 158.518 603.939 157.799C603.738 157.806 603.536 157.81 603.333 157.81C600.935 157.81 598.664 157.335 596.938 156.472C596.598 156.302 596.286 156.12 596 155.927V156.762C596 158.246 599.136 159.905 603.333 159.905ZM603.333 155.715C603.354 155.715 603.376 155.714 603.397 155.714C603.354 155.367 603.332 155.017 603.332 154.666C603.332 154.312 603.354 153.962 603.397 153.619C603.376 153.619 603.354 153.62 603.333 153.62C600.935 153.62 598.664 153.145 596.938 152.282C596.598 152.112 596.286 151.929 596 151.736V152.572C596 154.056 599.136 155.715 603.333 155.715ZM603.333 151.524C603.541 151.524 603.746 151.52 603.948 151.512C604.272 150.72 604.714 149.982 605.26 149.324C604.62 149.394 603.977 149.43 603.333 149.43C600.935 149.43 598.664 148.954 596.938 148.092C596.598 147.922 596.286 147.739 596 147.546V148.382C596 149.865 599.136 151.524 603.333 151.524ZM606.476 151.194C606.015 151.887 605.696 152.665 605.54 153.482C605.465 153.872 605.427 154.269 605.427 154.666C605.427 154.971 605.449 155.27 605.491 155.563C605.593 156.268 605.814 156.952 606.146 157.582C606.487 158.23 606.938 158.814 607.478 159.308C608.597 160.329 610.084 160.953 611.714 160.953C615.18 160.953 618 158.133 618 154.666C618 151.2 615.18 148.38 611.714 148.38C611.355 148.38 611.004 148.411 610.662 148.468C608.919 148.763 607.418 149.777 606.476 151.194Z" fill="#9B9B9B"/>
<path d="M603.333 147.332C607.53 147.332 610.666 145.673 610.666 144.189C610.666 142.706 607.53 141.047 603.333 141.047C599.136 141.047 596 142.706 596 144.189C596 145.673 599.136 147.332 603.333 147.332ZM603.333 159.903C603.946 159.903 604.535 159.867 605.096 159.803C604.62 159.191 604.23 158.516 603.939 157.797C603.738 157.804 603.536 157.808 603.333 157.808C600.935 157.808 598.664 157.333 596.938 156.47C596.598 156.3 596.286 156.118 596 155.925V156.761C596 158.244 599.136 159.903 603.333 159.903ZM603.333 155.713C603.354 155.713 603.376 155.712 603.397 155.712C603.354 155.365 603.332 155.015 603.332 154.664C603.332 154.31 603.354 153.96 603.397 153.617C603.376 153.617 603.354 153.618 603.333 153.618C600.935 153.618 598.664 153.143 596.938 152.28C596.598 152.11 596.286 151.928 596 151.734V152.57C596 154.054 599.136 155.713 603.333 155.713ZM603.333 151.522C603.541 151.522 603.746 151.518 603.948 151.51C604.272 150.718 604.714 149.98 605.26 149.322C604.62 149.392 603.977 149.428 603.333 149.428C600.935 149.428 598.664 148.952 596.938 148.09C596.598 147.92 596.286 147.737 596 147.544V148.38C596 149.863 599.136 151.522 603.333 151.522Z" fill="#121220"/>
</g>
<path d="M402.625 287.25H398.875C398.53 287.25 398.25 287.53 398.25 287.875V294.125C398.25 294.47 398.53 294.75 398.875 294.75H402.625C402.97 294.75 403.25 294.47 403.25 294.125V287.875C403.25 287.53 402.97 287.25 402.625 287.25Z" fill="#0E0E14"/>
<path d="M415.125 282.25H411.375C411.03 282.25 410.75 282.53 410.75 282.875V294.125C410.75 294.47 411.03 294.75 411.375 294.75H415.125C415.47 294.75 415.75 294.47 415.75 294.125V282.875C415.75 282.53 415.47 282.25 415.125 282.25Z" fill="#0E0E14"/>
<path d="M408.875 277.25H405.125C404.78 277.25 404.5 277.53 404.5 277.875V294.125C404.5 294.47 404.78 294.75 405.125 294.75H408.875C409.22 294.75 409.5 294.47 409.5 294.125V277.875C409.5 277.53 409.22 277.25 408.875 277.25Z" fill="#9B9B9B"/>
<path d="M415.285 692.365V863.829C415.285 869.279 418.179 874.32 422.885 877.068L599.426 980.156C604.207 982.948 610.123 982.944 614.902 980.147L790.951 877.071C795.649 874.32 798.536 869.285 798.536 863.841V692.353C798.536 687.059 795.805 682.14 791.311 679.341L615.261 569.675C610.305 566.588 604.025 566.584 599.066 569.665L422.525 679.343C418.023 682.14 415.285 687.064 415.285 692.365Z" fill="url(#paint4_linear_429_2685)" stroke="#474747" stroke-width="1.022"/>
<rect width="225.242" height="225.242" rx="7.15401" transform="matrix(0.866044 0.499967 -0.866044 0.499967 607.07 735.309)" fill="url(#paint5_linear_429_2685)"/>
<g opacity="0.78">
<path d="M544.38 817.004L534.974 811.574C534.432 811.261 534.465 810.734 535.045 810.398L552.29 800.443C552.871 800.108 553.785 800.089 554.327 800.401L555.798 801.251C556.34 801.563 556.307 802.091 555.726 802.427L542.181 810.246C541.6 810.582 541.568 811.11 542.109 811.422L548.079 814.869C548.621 815.181 548.588 815.709 548.007 816.044L546.417 816.963C545.836 817.298 544.922 817.317 544.38 817.004L544.38 817.004ZM608.882 835.44L610.412 836.323C610.954 836.636 610.921 837.164 610.34 837.499L609.387 838.05C608.806 838.385 607.892 838.404 607.35 838.091L605.82 837.208C605.279 836.895 604.364 836.914 603.783 837.249L596.922 841.21C595.625 841.959 595.395 842.573 596.23 843.056C596.814 843.393 597.598 843.532 598.575 843.47C599.208 843.431 599.761 843.62 599.981 843.953L600.361 844.524C600.517 844.759 600.479 845.005 600.254 845.237C600.027 845.469 599.676 845.621 599.234 845.679C596.431 846.047 594.325 845.825 592.92 845.014C589.767 843.193 590.061 841.2 593.808 839.037L601.398 834.655L600.955 834.399C600.414 834.087 600.446 833.559 601.027 833.224L603.035 832.065L603.478 832.32C604.019 832.633 604.933 832.614 605.514 832.279L605.572 832.245C606.152 831.91 607.067 831.891 607.608 832.204L609.083 833.055C609.624 833.368 609.592 833.896 609.011 834.231L608.954 834.264C608.373 834.6 608.34 835.127 608.882 835.44L608.882 835.44ZM583.81 839.754L582.349 838.911C581.808 838.599 581.84 838.071 582.421 837.736L590.868 832.86C592.931 831.661 593.186 830.616 591.644 829.726C591.141 829.435 590.502 829.194 589.735 829.008C588.851 828.801 587.96 828.71 587.048 828.735C586.181 828.758 585.419 828.912 584.765 829.194C584.7 829.222 584.648 829.248 584.591 829.281L576.184 834.135C575.603 834.47 574.688 834.489 574.147 834.176L572.675 833.327C572.134 833.014 572.166 832.486 572.747 832.151L591.758 821.176C592.339 820.841 593.253 820.822 593.794 821.135L595.266 821.984C595.807 822.297 595.775 822.825 595.194 823.16L591.689 825.183C591.312 825.401 591.157 825.685 591.259 825.972C591.361 826.259 591.691 826.467 592.176 826.55C593.424 826.762 594.48 827.117 595.343 827.615C596.226 828.125 596.874 828.722 597.283 829.411C597.607 829.948 597.733 830.513 597.664 831.106C597.593 831.702 597.287 832.312 596.749 832.942C596.214 833.569 595.392 834.202 594.293 834.837L585.847 839.713C585.266 840.048 584.352 840.067 583.81 839.754L583.81 839.754L583.81 839.754ZM555.654 829.651C554.606 829.041 553.739 828.362 553.068 827.606C552.728 827.225 552.456 826.855 552.251 826.497C552.109 826.249 552.174 825.993 552.438 825.763C552.701 825.533 553.09 825.392 553.552 825.361L555.475 825.228C556.124 825.183 556.694 825.381 556.907 825.726C557.036 825.933 557.208 826.151 557.429 826.38C557.87 826.831 558.429 827.256 559.116 827.652C561.197 828.854 563.09 829.083 564.792 828.339C565.217 828.153 565.442 827.88 565.413 827.584C565.384 827.288 565.111 827.052 564.655 826.93C563.551 826.634 562.549 826.227 561.652 825.71C560.6 825.102 559.813 824.422 559.291 823.663C558.77 822.909 558.506 822.128 558.509 821.326C558.508 820.527 558.77 819.746 559.295 818.988C559.82 818.231 560.608 817.545 561.664 816.936C562.711 816.331 563.896 815.878 565.208 815.575C566.519 815.272 567.868 815.123 569.257 815.121C570.643 815.122 571.995 815.274 573.305 815.573C574.615 815.876 575.795 816.33 576.847 816.938C578.248 817.747 579.186 818.699 579.655 819.798L579.58 819.841L579.59 819.86L579.695 819.799C580.276 819.464 581.19 819.445 581.732 819.757L583.203 820.607C583.744 820.919 583.712 821.447 583.131 821.783L569.176 829.838C569.169 829.843 569.161 829.847 569.153 829.852C567.371 830.839 565.541 831.386 563.663 831.492C562.061 831.584 560.555 831.442 559.146 831.064C557.822 830.701 556.662 830.228 555.654 829.651L555.654 829.651L555.654 829.651ZM565.092 823.724C565.975 824.234 567.013 824.547 568.203 824.665C569.277 824.769 570.318 824.712 571.328 824.492C571.546 824.444 571.719 824.379 571.886 824.283L574.376 822.845C574.543 822.749 574.655 822.65 574.737 822.524C575.1 821.972 575.211 821.408 575.07 820.832C574.886 820.089 574.332 819.453 573.411 818.921C572.838 818.591 572.189 818.344 571.471 818.177C570.752 818.015 570.014 817.931 569.254 817.932C568.493 817.929 567.756 818.012 567.034 818.177C566.317 818.344 565.674 818.592 565.103 818.922C563.952 819.587 563.374 820.386 563.374 821.326C563.374 822.262 563.946 823.063 565.092 823.724L565.092 823.724ZM565.867 811.816L551.695 819.997C551.114 820.333 550.2 820.351 549.659 820.039L548.167 819.178C547.625 818.865 547.658 818.337 548.239 818.002L562.41 809.821C562.991 809.485 563.906 809.467 564.447 809.779L565.939 810.641C566.48 810.953 566.448 811.481 565.867 811.816ZM566.323 809.546C565.85 809.273 565.628 808.935 565.66 808.535C565.684 808.134 565.951 807.788 566.459 807.495C566.973 807.198 567.576 807.042 568.274 807.025C568.964 807.009 569.549 807.138 570.021 807.411C570.505 807.69 570.734 808.031 570.713 808.433C570.688 808.838 570.419 809.188 569.905 809.485C569.397 809.778 568.796 809.93 568.099 809.943C567.398 809.957 566.806 809.825 566.323 809.546Z" fill="#0B0B0B"/>
<path d="M613.878 853.784L611.359 852.33L613.523 849.372L609.288 846.927L604.247 848.224L601.733 846.773L619.375 842.217L621.499 843.443L613.899 853.788L613.878 853.784L613.878 853.784ZM615.072 847.263L616.722 845.011L612.887 846.002L615.072 847.263Z" fill="#0B0B0B"/>
<path d="M623.012 859.06L620.627 857.683L627.013 853.997C628.399 853.191 628.556 852.479 627.479 851.858C627.129 851.655 626.688 851.488 626.158 851.353C625.551 851.207 624.937 851.137 624.313 851.148C623.689 851.158 623.148 851.268 622.695 851.477L616.286 855.177L613.893 853.796L624.836 847.479L627.229 848.86L626.091 849.517C627.712 849.576 629.004 849.885 629.965 850.44C630.58 850.795 631.036 851.208 631.333 851.683C631.562 852.052 631.664 852.441 631.627 852.845C631.59 853.251 631.394 853.667 631.039 854.094C630.685 854.52 630.137 854.947 629.398 855.374L623.012 859.061L623.012 859.06L623.012 859.06Z" fill="#0B0B0B"/>
<path d="M633.141 864.91L630.749 863.529L631.72 862.969C630.384 862.911 629.326 862.656 628.548 862.207C627.313 861.494 626.623 860.662 626.478 859.707C626.338 858.802 626.779 858.054 627.807 857.46C629.905 856.249 632.521 856.547 635.655 858.356C636.325 858.743 636.874 859.192 637.295 859.7C638.597 858.891 638.478 858.041 636.939 857.152C636.461 856.876 635.953 856.648 635.411 856.47C634.868 856.293 634.377 856.188 633.941 856.154L634.279 854.251C635.064 854.32 635.91 854.489 636.812 854.763C637.713 855.039 638.532 855.387 639.264 855.81C639.963 856.214 640.537 856.678 640.983 857.205C641.447 857.766 641.634 858.363 641.544 858.994C641.441 859.736 640.811 860.453 639.658 861.148L633.141 864.91L633.141 864.91ZM630.464 861.11C631.413 861.657 632.548 861.861 633.877 861.724L635.699 860.672C635.396 860.164 634.861 859.691 634.102 859.253C633.211 858.739 632.464 858.468 631.861 858.448C631.259 858.424 630.707 858.557 630.206 858.846C629.677 859.152 629.426 859.513 629.453 859.927C629.481 860.34 629.818 860.737 630.464 861.11L630.464 861.11Z" fill="#0B0B0B"/>
<path d="M638.109 866.721L636.083 865.551L649.762 857.654L651.788 858.824L638.109 866.721Z" fill="#0B0B0B"/>
<path d="M636.816 871.243C636.396 871 636.08 870.715 635.859 870.386C635.642 870.059 635.546 869.713 635.571 869.354L638.51 869.39C638.509 869.623 638.661 869.828 638.971 870.007C639.698 870.427 640.779 870.447 642.213 870.067L649.295 861.6L651.676 862.975L646.963 868.614L656.887 865.983L659.281 867.365L644.786 871.22C643.263 871.656 641.783 871.896 640.353 871.942C638.923 872.012 637.745 871.779 636.816 871.243L636.816 871.243Z" fill="#0B0B0B"/>
<path d="M664.018 869.599L666.378 870.962L664.409 872.098L662.049 870.736L656.959 873.674C656.126 874.155 655.992 874.558 656.556 874.884C657.078 875.185 657.818 875.261 658.772 875.108L659.727 876.472C657.328 876.907 655.562 876.798 654.43 876.144C652.3 874.914 652.437 873.603 654.847 872.212L659.726 869.395L658.764 868.839L660.732 867.702L661.695 868.258L663.088 867.454L665.41 868.795L664.018 869.599L664.018 869.599Z" fill="#0B0B0B"/>
<path d="M670.943 873.503L660.398 879.59L658.372 878.42L668.917 872.333L670.943 873.503ZM670.663 872.488C670.385 872.328 670.266 872.124 670.306 871.876C670.343 871.628 670.526 871.411 670.856 871.22C671.188 871.028 671.569 870.921 672 870.898C672.426 870.876 672.781 870.945 673.058 871.105C673.341 871.268 673.464 871.475 673.43 871.724C673.394 871.974 673.209 872.195 672.876 872.387C672.547 872.577 672.168 872.682 671.736 872.701C671.303 872.723 670.945 872.651 670.663 872.488Z" fill="#0B0B0B"/>
<path d="M665.599 883.645C664.892 883.237 664.375 882.774 664.043 882.255C663.713 881.734 663.564 881.197 663.596 880.641C663.629 880.085 663.846 879.537 664.243 879.003C664.642 878.465 665.219 877.979 665.97 877.546C666.729 877.108 667.571 876.775 668.499 876.546C669.423 876.318 670.37 876.193 671.336 876.173C672.301 876.152 673.235 876.237 674.134 876.429C675.034 876.621 675.836 876.919 676.542 877.327C677.237 877.728 677.759 878.202 678.105 878.751C678.451 879.297 678.59 879.869 678.524 880.466L675.151 880.478C675.229 879.796 674.867 879.222 674.063 878.758C673.677 878.535 673.24 878.373 672.748 878.267C672.255 878.163 671.745 878.115 671.212 878.127C670.684 878.138 670.165 878.206 669.658 878.33C669.152 878.457 668.689 878.639 668.276 878.877C667.863 879.116 667.549 879.382 667.331 879.674C667.114 879.968 666.997 880.266 666.981 880.569C666.964 880.875 667.047 881.17 667.228 881.453C667.409 881.739 667.691 881.991 668.077 882.214C668.515 882.466 669.025 882.646 669.604 882.75C670.182 882.855 670.795 882.874 671.442 882.817L671.744 884.741C670.584 884.847 669.466 884.803 668.386 884.611C667.312 884.418 666.379 884.095 665.599 883.645Z" fill="#0B0B0B"/>
<path d="M673.555 888.238C672.885 887.851 672.337 887.411 671.911 886.919C671.485 886.425 671.256 885.948 671.22 885.486L674.64 885.43C674.655 885.641 674.784 885.873 675.03 886.127C675.276 886.381 675.592 886.618 675.976 886.84C676.324 887.041 676.698 887.202 677.098 887.321C677.424 887.417 677.718 887.467 677.982 887.469C678.248 887.47 678.502 887.399 678.751 887.255C678.88 887.18 678.903 887.061 678.815 886.898C678.729 886.734 678.578 886.546 678.368 886.333C678.16 886.118 677.93 885.897 677.687 885.664C677.319 885.328 676.976 884.992 676.667 884.656C676.356 884.319 676.132 883.982 675.998 883.646C675.863 883.309 675.871 882.975 676.02 882.641C676.173 882.307 676.535 881.973 677.115 881.638C677.999 881.129 679.03 880.868 680.207 880.857C681.823 880.848 683.332 881.247 684.733 882.056C685.403 882.443 685.95 882.883 686.379 883.374C686.805 883.868 687.036 884.346 687.073 884.813L683.648 884.864C683.632 884.654 683.503 884.422 683.26 884.171C683.014 883.92 682.696 883.683 682.306 883.458C681.958 883.257 681.587 883.097 681.191 882.975C680.865 882.876 680.572 882.826 680.311 882.829C680.049 882.827 679.792 882.9 679.546 883.042C679.414 883.118 679.393 883.238 679.478 883.399C679.564 883.561 679.71 883.748 679.92 883.962C680.132 884.176 680.359 884.399 680.603 884.629C680.973 884.966 681.311 885.302 681.622 885.64C681.933 885.974 682.155 886.313 682.292 886.647C682.428 886.984 682.418 887.318 682.268 887.653C682.118 887.986 681.752 888.321 681.174 888.654C680.288 889.166 679.257 889.426 678.081 889.437C676.466 889.447 674.956 889.047 673.554 888.238L673.555 888.238Z" fill="#0B0B0B"/>
</g>
<rect width="130.195" height="130.195" rx="7.15401" transform="matrix(0.866044 0.499967 -0.866044 0.499967 607.082 537.039)" fill="#D9D9D9" fill-opacity="0.27"/>
<rect width="130.195" height="130.195" rx="7.15401" transform="matrix(0.866044 0.499967 -0.866044 0.499967 607.082 475.719)" fill="#D9D9D9" fill-opacity="0.42"/>
<rect width="130.195" height="130.195" rx="7.15401" transform="matrix(0.866044 0.499967 -0.866044 0.499967 607.082 523.752)" fill="url(#paint6_linear_429_2685)" fill-opacity="0.76"/>
<rect width="130.195" height="130.195" rx="7.15401" transform="matrix(0.866044 0.499967 -0.866044 0.499967 607.082 462.432)" fill="url(#paint7_linear_429_2685)"/>
<rect width="206.654" height="206.654" rx="7.15401" transform="matrix(0.866044 0.499967 -0.866044 0.499967 607.082 667.855)" fill="url(#paint8_linear_429_2685)" fill-opacity="0.27"/>
<g opacity="0.78">
<path d="M573.281 509.261L568.289 506.379C568.002 506.213 568.019 505.933 568.328 505.755L577.478 500.473C577.787 500.295 578.272 500.285 578.559 500.451L579.34 500.901C579.627 501.067 579.61 501.347 579.302 501.525L572.114 505.675C571.806 505.853 571.789 506.133 572.076 506.299L575.244 508.128C575.531 508.293 575.514 508.574 575.206 508.751L574.362 509.239C574.053 509.417 573.568 509.427 573.281 509.261L573.281 509.261ZM607.508 519.044L608.32 519.512C608.607 519.678 608.59 519.958 608.282 520.136L607.776 520.428C607.468 520.606 606.983 520.616 606.695 520.45L605.883 519.981C605.596 519.816 605.111 519.826 604.803 520.004L601.161 522.106C600.474 522.503 600.351 522.829 600.795 523.085C601.105 523.264 601.52 523.338 602.039 523.305C602.375 523.284 602.668 523.384 602.785 523.561L602.986 523.864C603.069 523.989 603.049 524.119 602.93 524.242C602.81 524.365 602.623 524.446 602.388 524.477C600.901 524.672 599.784 524.554 599.038 524.124C597.365 523.158 597.521 522.1 599.509 520.952L603.537 518.627L603.302 518.491C603.015 518.326 603.032 518.045 603.34 517.867L604.406 517.252L604.64 517.388C604.928 517.554 605.413 517.544 605.721 517.366L605.752 517.348C606.06 517.17 606.545 517.161 606.832 517.326L607.615 517.778C607.902 517.944 607.885 518.224 607.577 518.402L607.546 518.42C607.238 518.598 607.221 518.878 607.508 519.044L607.508 519.044ZM594.204 521.333L593.429 520.886C593.142 520.72 593.159 520.44 593.467 520.262L597.949 517.674C599.044 517.038 599.179 516.484 598.361 516.011C598.094 515.857 597.755 515.729 597.348 515.631C596.879 515.521 596.406 515.472 595.922 515.486C595.462 515.498 595.058 515.58 594.711 515.729C594.676 515.744 594.649 515.758 594.619 515.775L590.157 518.351C589.849 518.529 589.364 518.539 589.076 518.373L588.296 517.922C588.008 517.756 588.025 517.476 588.334 517.298L598.421 511.475C598.73 511.297 599.215 511.287 599.502 511.453L600.283 511.903C600.57 512.069 600.553 512.349 600.245 512.527L598.385 513.601C598.185 513.716 598.103 513.867 598.157 514.02C598.211 514.172 598.386 514.282 598.643 514.326C599.306 514.439 599.866 514.627 600.324 514.891C600.792 515.162 601.136 515.479 601.353 515.844C601.525 516.129 601.592 516.429 601.556 516.744C601.518 517.06 601.356 517.384 601.07 517.718C600.786 518.051 600.35 518.387 599.767 518.724L595.285 521.311C594.977 521.489 594.491 521.499 594.204 521.333L594.204 521.333L594.204 521.333ZM579.263 515.972C578.707 515.648 578.247 515.288 577.891 514.887C577.711 514.684 577.566 514.488 577.458 514.298C577.382 514.166 577.417 514.03 577.557 513.908C577.696 513.786 577.902 513.712 578.148 513.695L579.168 513.625C579.513 513.601 579.815 513.706 579.928 513.889C579.997 513.999 580.088 514.115 580.205 514.236C580.439 514.475 580.736 514.701 581.1 514.911C582.205 515.549 583.209 515.67 584.112 515.276C584.338 515.177 584.457 515.032 584.442 514.875C584.427 514.718 584.282 514.592 584.04 514.528C583.453 514.371 582.922 514.155 582.446 513.88C581.888 513.558 581.47 513.197 581.193 512.794C580.917 512.394 580.777 511.98 580.778 511.554C580.778 511.13 580.917 510.716 581.195 510.314C581.474 509.912 581.892 509.548 582.452 509.225C583.008 508.904 583.637 508.663 584.333 508.503C585.029 508.342 585.744 508.263 586.482 508.262C587.217 508.262 587.934 508.343 588.63 508.501C589.325 508.662 589.951 508.903 590.509 509.226C591.253 509.655 591.75 510.16 591.999 510.743L591.959 510.766L591.965 510.776L592.02 510.744C592.329 510.566 592.814 510.556 593.101 510.722L593.882 511.172C594.169 511.338 594.152 511.618 593.844 511.796L586.439 516.071C586.435 516.074 586.431 516.076 586.426 516.078C585.481 516.602 584.51 516.892 583.513 516.949C582.663 516.998 581.864 516.922 581.116 516.722C580.414 516.529 579.798 516.278 579.263 515.972L579.263 515.972L579.263 515.972ZM584.271 512.827C584.74 513.097 585.291 513.263 585.922 513.326C586.492 513.381 587.045 513.351 587.58 513.234C587.696 513.209 587.788 513.174 587.876 513.123L589.198 512.36C589.286 512.309 589.346 512.256 589.389 512.19C589.582 511.897 589.641 511.597 589.566 511.292C589.468 510.898 589.175 510.56 588.686 510.278C588.382 510.103 588.037 509.972 587.656 509.883C587.275 509.797 586.883 509.753 586.48 509.753C586.076 509.751 585.685 509.796 585.302 509.883C584.922 509.972 584.58 510.103 584.277 510.278C583.666 510.631 583.36 511.055 583.36 511.554C583.36 512.051 583.664 512.476 584.271 512.827L584.271 512.827ZM584.683 506.508L577.163 510.849C576.854 511.027 576.369 511.037 576.082 510.871L575.29 510.414C575.003 510.248 575.02 509.968 575.328 509.79L582.848 505.449C583.157 505.271 583.642 505.261 583.929 505.427L584.721 505.884C585.008 506.05 584.991 506.33 584.683 506.508ZM584.925 505.303C584.674 505.158 584.556 504.979 584.573 504.767C584.586 504.554 584.727 504.371 584.997 504.215C585.27 504.057 585.59 503.974 585.96 503.966C586.326 503.957 586.636 504.025 586.887 504.17C587.144 504.318 587.265 504.499 587.254 504.713C587.241 504.928 587.098 505.113 586.825 505.271C586.556 505.426 586.237 505.507 585.867 505.514C585.495 505.521 585.181 505.451 584.925 505.303Z" fill="#0B0B0B"/>
<path d="M610.158 528.778L608.822 528.007L609.97 526.437L607.723 525.139L605.048 525.828L603.714 525.058L613.075 522.64L614.202 523.291L610.169 528.78L610.158 528.778L610.158 528.778ZM610.792 525.318L611.668 524.123L609.632 524.648L610.792 525.318Z" fill="#0B0B0B"/>
<path d="M615.005 531.577L613.739 530.847L617.128 528.89C617.863 528.463 617.947 528.085 617.375 527.755C617.189 527.648 616.955 527.559 616.674 527.488C616.352 527.41 616.026 527.373 615.695 527.379C615.364 527.384 615.077 527.443 614.836 527.554L611.436 529.517L610.166 528.784L615.973 525.432L617.242 526.165L616.639 526.513C617.499 526.545 618.184 526.708 618.694 527.003C619.021 527.191 619.263 527.41 619.42 527.663C619.542 527.859 619.596 528.065 619.576 528.279C619.557 528.495 619.452 528.716 619.264 528.942C619.077 529.168 618.786 529.395 618.393 529.621L615.005 531.578L615.005 531.577L615.005 531.577Z" fill="#0B0B0B"/>
<path d="M620.38 534.681L619.111 533.948L619.626 533.651C618.917 533.62 618.355 533.485 617.942 533.247C617.287 532.869 616.921 532.427 616.844 531.92C616.77 531.44 617.004 531.043 617.549 530.728C618.663 530.085 620.051 530.243 621.714 531.203C622.07 531.409 622.361 531.647 622.584 531.916C623.275 531.487 623.212 531.036 622.395 530.564C622.142 530.418 621.872 530.297 621.584 530.203C621.296 530.109 621.036 530.053 620.804 530.035L620.984 529.025C621.4 529.061 621.849 529.151 622.328 529.297C622.806 529.443 623.24 529.628 623.629 529.852C624 530.066 624.304 530.313 624.541 530.593C624.787 530.89 624.887 531.207 624.839 531.542C624.784 531.935 624.45 532.316 623.838 532.684L620.38 534.681L620.38 534.681ZM618.959 532.664C619.463 532.955 620.065 533.063 620.771 532.99L621.737 532.432C621.576 532.163 621.293 531.912 620.89 531.679C620.417 531.406 620.021 531.263 619.701 531.252C619.381 531.239 619.088 531.31 618.823 531.463C618.541 531.625 618.409 531.817 618.423 532.037C618.437 532.256 618.617 532.466 618.959 532.664L618.959 532.664Z" fill="#0B0B0B"/>
<path d="M623.02 535.643L621.945 535.022L629.203 530.832L630.278 531.453L623.02 535.643Z" fill="#0B0B0B"/>
<path d="M622.331 538.04C622.108 537.912 621.94 537.76 621.823 537.586C621.708 537.413 621.657 537.229 621.67 537.038L623.23 537.057C623.229 537.181 623.31 537.29 623.474 537.385C623.86 537.607 624.434 537.618 625.195 537.416L628.953 532.924L630.216 533.653L627.716 536.646L632.981 535.249L634.252 535.983L626.56 538.028C625.752 538.26 624.966 538.387 624.208 538.412C623.449 538.449 622.824 538.325 622.331 538.04L622.331 538.04Z" fill="#0B0B0B"/>
<path d="M636.766 537.169L638.019 537.893L636.974 538.496L635.721 537.772L633.02 539.332C632.579 539.587 632.507 539.801 632.807 539.974C633.083 540.134 633.476 540.174 633.983 540.093L634.489 540.817C633.216 541.047 632.279 540.989 631.678 540.642C630.548 539.99 630.621 539.294 631.899 538.556L634.489 537.061L633.978 536.766L635.023 536.163L635.534 536.458L636.273 536.031L637.505 536.743L636.766 537.169L636.766 537.169Z" fill="#0B0B0B"/>
<path d="M640.439 539.241L634.844 542.471L633.769 541.851L639.364 538.62L640.439 539.241ZM640.291 538.703C640.143 538.618 640.08 538.509 640.102 538.378C640.121 538.246 640.218 538.131 640.393 538.03C640.57 537.928 640.772 537.871 641 537.859C641.227 537.847 641.415 537.884 641.562 537.969C641.712 538.055 641.777 538.165 641.759 538.297C641.74 538.43 641.642 538.547 641.465 538.649C641.291 538.75 641.09 538.805 640.86 538.816C640.631 538.827 640.441 538.789 640.291 538.703Z" fill="#0B0B0B"/>
<path d="M637.605 544.623C637.23 544.406 636.955 544.161 636.779 543.885C636.604 543.609 636.525 543.324 636.542 543.029C636.559 542.734 636.674 542.443 636.885 542.16C637.097 541.874 637.403 541.616 637.801 541.386C638.204 541.154 638.651 540.977 639.144 540.856C639.634 540.735 640.136 540.669 640.649 540.658C641.161 540.647 641.656 540.692 642.134 540.794C642.611 540.896 643.037 541.054 643.411 541.27C643.78 541.483 644.057 541.735 644.241 542.026C644.425 542.316 644.498 542.619 644.463 542.936L642.673 542.942C642.715 542.58 642.523 542.276 642.096 542.03C641.891 541.911 641.659 541.825 641.398 541.769C641.137 541.714 640.866 541.689 640.583 541.695C640.303 541.7 640.028 541.737 639.759 541.803C639.49 541.87 639.244 541.966 639.025 542.093C638.806 542.219 638.64 542.361 638.524 542.516C638.408 542.672 638.347 542.83 638.338 542.991C638.329 543.153 638.373 543.309 638.469 543.46C638.565 543.611 638.715 543.745 638.92 543.863C639.152 543.997 639.423 544.093 639.73 544.148C640.037 544.203 640.362 544.214 640.705 544.183L640.866 545.205C640.25 545.261 639.657 545.237 639.084 545.135C638.514 545.033 638.019 544.862 637.605 544.623Z" fill="#0B0B0B"/>
<path d="M641.828 547.062C641.473 546.857 641.182 546.623 640.956 546.362C640.73 546.1 640.608 545.847 640.59 545.601L642.404 545.572C642.412 545.684 642.481 545.807 642.611 545.942C642.742 546.076 642.909 546.202 643.113 546.32C643.298 546.427 643.496 546.512 643.709 546.575C643.882 546.626 644.038 546.653 644.177 546.654C644.318 546.654 644.454 546.616 644.585 546.54C644.654 546.501 644.666 546.437 644.619 546.351C644.574 546.264 644.494 546.164 644.382 546.051C644.272 545.937 644.15 545.82 644.021 545.696C643.826 545.518 643.644 545.34 643.48 545.161C643.315 544.982 643.196 544.803 643.125 544.625C643.053 544.446 643.057 544.269 643.136 544.092C643.217 543.914 643.41 543.738 643.718 543.56C644.186 543.289 644.734 543.151 645.358 543.145C646.216 543.14 647.016 543.352 647.76 543.782C648.116 543.987 648.406 544.22 648.633 544.481C648.86 544.743 648.982 544.997 649.002 545.245L647.184 545.271C647.176 545.16 647.107 545.037 646.978 544.904C646.848 544.771 646.679 544.645 646.472 544.525C646.287 544.418 646.091 544.334 645.881 544.269C645.708 544.216 645.552 544.19 645.413 544.191C645.274 544.191 645.138 544.229 645.008 544.305C644.937 544.345 644.926 544.409 644.972 544.494C645.017 544.58 645.094 544.679 645.206 544.793C645.319 544.907 645.439 545.025 645.568 545.147C645.765 545.326 645.944 545.504 646.109 545.683C646.274 545.861 646.392 546.04 646.465 546.218C646.537 546.396 646.532 546.574 646.452 546.751C646.372 546.928 646.178 547.106 645.872 547.283C645.401 547.554 644.854 547.693 644.23 547.698C643.373 547.703 642.572 547.491 641.828 547.062L641.828 547.062Z" fill="#0B0B0B"/>
</g>
<path d="M609.794 443.923C608.717 446.231 605.434 446.231 604.356 443.923L576.992 385.268C576.064 383.279 577.516 381 579.71 381L634.438 381C636.633 381 638.085 383.279 637.157 385.268L609.794 443.923Z" fill="url(#paint9_linear_429_2685)"/>
<ellipse cx="607" cy="381" rx="31" ry="16" fill="url(#paint10_linear_429_2685)"/>
<path d="M514.898 39.3344H500.503C499.675 39.3344 499 38.6102 499 37.7213V11.3322C499 10.4432 499.675 9.71889 500.503 9.71889H502.755C503.583 9.71889 504.258 10.4432 504.258 11.3322V32.0604C504.258 32.9493 504.933 33.6735 505.762 33.6735H514.898C515.726 33.6735 516.401 34.3978 516.401 35.2868V37.7212C516.401 38.6101 515.726 39.3343 514.898 39.3343V39.3344ZM588.685 14.4157H591.027C591.855 14.4157 592.53 15.14 592.53 16.029V17.488C592.53 18.3771 591.855 19.1013 591.027 19.1013H588.685C587.856 19.1013 587.181 19.8256 587.181 20.7145V31.2151C587.181 33.1985 587.82 34.1898 589.098 34.1898C589.992 34.1898 590.776 33.7751 591.442 32.9451C591.874 32.4087 592.548 32.2368 593.157 32.5087L594.205 32.9757C594.636 33.1675 594.933 33.5225 595.068 34.0027C595.202 34.4826 595.135 34.9535 594.874 35.369C593.217 38.001 591.311 39.3174 589.161 39.3174C584.336 39.3174 581.918 36.4509 581.918 30.7165V19.1014H581.241C580.412 19.1014 579.737 18.3772 579.737 17.4881V14.4158H580.415C581.243 14.4158 581.918 13.6916 581.918 12.8026V12.7146C581.918 11.8257 582.593 11.1014 583.421 11.1014H585.678C586.507 11.1014 587.181 11.8257 587.181 12.7146V12.8026C587.181 13.6916 587.856 14.4158 588.685 14.4158V14.4157ZM575.22 39.3176H572.985C572.156 39.3176 571.481 38.5934 571.481 37.7044V24.7792C571.471 21.6117 570.282 20.0318 567.922 20.0318C567.152 20.0318 566.344 20.2008 565.51 20.5413C564.56 20.9433 563.757 21.5046 563.092 22.2353C562.46 22.9298 562.08 23.7168 561.954 24.5904C561.941 24.6766 561.936 24.7508 561.936 24.8381V37.7044C561.936 38.5934 561.261 39.3176 560.433 39.3176H558.181C557.352 39.3176 556.677 38.5934 556.677 37.7044V8.61328C556.677 7.72437 557.353 7.00011 558.181 7.00011H560.433C561.261 7.00011 561.936 7.72437 561.936 8.61328V13.9761C561.936 14.554 562.194 15.049 562.652 15.3517C563.111 15.6533 563.639 15.6766 564.119 15.4152C565.356 14.742 566.635 14.4047 567.955 14.4047C569.306 14.4047 570.594 14.6997 571.819 15.2999C572.779 15.7645 573.624 16.4161 574.358 17.2552C575.092 18.0988 575.668 19.1419 576.09 20.3882C576.513 21.6284 576.723 23.0967 576.723 24.7789V37.704C576.723 38.5931 576.048 39.3173 575.22 39.3173V39.3174L575.22 39.3176ZM540.285 47.4698C538.675 47.4642 537.112 47.2265 535.597 46.739C534.831 46.4929 534.132 46.2107 533.501 45.8931C533.064 45.6726 532.774 45.284 532.671 44.7773C532.568 44.271 532.679 43.7876 532.991 43.3917L534.286 41.7447C534.723 41.1886 535.422 41.0156 536.042 41.3091C536.415 41.485 536.836 41.6422 537.308 41.7761C538.243 42.0365 539.234 42.1727 540.285 42.1727C543.471 42.1727 545.222 41.0277 545.538 38.7399C545.617 38.1673 545.428 37.6341 545.013 37.2632C544.599 36.893 544.076 36.7889 543.566 36.9761C542.329 37.4293 541.023 37.6566 539.651 37.6566C538.041 37.6566 536.537 37.3575 535.132 36.7508C533.733 36.1502 532.498 35.3174 531.437 34.2518C530.376 33.1931 529.542 31.958 528.94 30.552C528.338 29.1471 528.032 27.6346 528.032 26.0198C528.032 24.4162 528.338 22.9097 528.94 21.5045C529.542 20.0992 530.376 18.8701 531.437 17.8045C532.498 16.7445 533.733 15.9123 535.132 15.3055C536.537 14.7053 538.041 14.4046 539.651 14.4046C541.795 14.4046 543.775 14.9489 545.591 16.0475V16.1615L545.623 16.1783V16.0176C545.623 15.1287 546.298 14.4045 547.126 14.4045H549.377C550.206 14.4045 550.881 15.1287 550.881 16.0176V37.3718C550.881 37.3839 550.881 37.3951 550.881 37.4075C550.826 40.0795 550.15 42.2043 548.854 43.7818C547.75 45.1296 546.409 46.0937 544.83 46.6711C543.337 47.2034 541.821 47.4639 540.285 47.4697H540.285L540.285 47.4698ZM539.651 32.3934C541.003 32.3934 542.212 32.0144 543.279 31.2599C544.238 30.5762 544.959 29.7033 545.44 28.6393C545.544 28.4096 545.59 28.1909 545.59 27.9359V24.1248C545.59 23.8699 545.544 23.6523 545.441 23.423C544.986 22.4131 544.323 21.5808 543.452 20.9257C542.328 20.0821 541.061 19.6626 539.651 19.6626C538.775 19.6626 537.951 19.8327 537.181 20.1612C536.415 20.496 535.739 20.9493 535.159 21.5322C534.573 22.1101 534.119 22.7841 533.786 23.5555C533.459 24.3255 533.295 25.1464 533.295 26.0194C533.295 27.782 533.913 29.2829 535.159 30.5292C536.399 31.7707 537.899 32.3934 539.651 32.3934H539.651ZM524.462 16.0177V37.7044C524.462 38.5934 523.787 39.3176 522.959 39.3176H520.676C519.847 39.3176 519.172 38.5934 519.172 37.7044V16.0177C519.172 15.1288 519.847 14.4046 520.676 14.4046H522.959C523.787 14.4046 524.462 15.1288 524.462 16.0177ZM521.802 12.6599C521.078 12.6599 520.461 12.3824 519.954 11.8272C519.442 11.2771 519.188 10.6151 519.188 9.83824C519.188 9.05122 519.442 8.38221 519.954 7.82659C520.461 7.27726 521.078 7 521.802 7C522.541 7 523.169 7.27737 523.686 7.82659C524.203 8.38221 524.462 9.05122 524.462 9.83824C524.462 10.6151 524.203 11.2771 523.686 11.8272C523.169 12.3824 522.541 12.6599 521.802 12.6599Z" fill="#6162FD"/>
<path d="M616.819 34.9082H612.966L610.7 29.3316H604.219L602.082 34.9082H598.234L605.694 15.3711H608.945L616.841 34.8975L616.819 34.9082H616.819ZM609.091 25.352L607.368 21.1042L605.747 25.352H609.091Z" fill="white"/>
<path d="M630.799 34.9117H627.149V25.1391C627.141 23.0109 626.318 21.9477 624.67 21.9477C624.134 21.9477 623.574 22.0628 622.991 22.29C622.332 22.5605 621.77 22.9375 621.307 23.4297C620.843 23.9207 620.575 24.4806 620.505 25.1045V34.9119H616.844V18.166H620.505V19.9075C621.825 18.7457 623.222 18.166 624.693 18.166C625.634 18.166 626.53 18.3643 627.387 18.7679C628.052 19.0813 628.645 19.5191 629.152 20.0822C629.662 20.6491 630.064 21.3507 630.358 22.188C630.651 23.0225 630.799 24.0084 630.799 25.1396V34.9121V34.912L630.799 34.9117Z" fill="white"/>
<path d="M646.307 34.9102H642.646V33.4252C641.547 34.3696 640.4 34.8422 639.21 34.8422C637.32 34.8422 635.69 34.2669 634.312 33.1121C633.006 32.0196 632.352 30.6901 632.352 29.1179C632.352 25.907 634.748 24.3001 639.544 24.3001C640.57 24.3001 641.584 24.4747 642.579 24.8258C642.503 22.7574 641.286 21.7217 638.93 21.7217C638.199 21.7217 637.508 21.8088 636.857 21.9877C636.207 22.1681 635.692 22.4035 635.314 22.6935L633.05 19.9123C633.742 19.4024 634.613 18.9796 635.667 18.6522C636.722 18.3292 637.81 18.1641 638.93 18.1641C640 18.1641 641.054 18.3402 642.095 18.6979C643.193 19.0862 644.127 19.7335 644.895 20.64C645.799 21.7022 646.269 23.1344 646.307 24.9365V34.9101L646.307 34.9102ZM639.222 31.9215C640.673 31.9215 641.811 31.3227 642.646 30.1233V27.3352C641.742 26.8946 640.705 26.6767 639.544 26.6767C638.181 26.6767 637.251 26.8903 636.763 27.3242C636.27 27.754 636.024 28.3527 636.024 29.118C636.024 29.9291 636.31 30.5985 636.88 31.1282C637.449 31.6538 638.233 31.9214 639.222 31.9214V31.9215Z" fill="white"/>
<path d="M652.503 33.5147H649.402V12.582H652.503V33.5147Z" fill="white"/>
<path d="M657.51 40.4921C656.867 40.4921 656.248 40.3555 655.643 40.0894C655.044 39.822 654.511 39.4363 654.055 38.941L656.351 36.7407C656.66 37.0504 657.048 37.2054 657.521 37.2054C658.634 37.2054 659.488 36.4044 660.081 34.8039L654.279 18.1641H657.923L661.791 29.2438L665.896 18.1641H669.56L663.578 34.3635C662.991 36.1074 662.176 37.5573 661.144 38.7132C660.142 39.8996 658.932 40.4922 657.51 40.4922V40.4921Z" fill="white"/>
<path d="M676.141 17.5023H679.753V20.5152H676.141V28.3038C676.141 29.5781 676.573 30.216 677.436 30.216C678.234 30.216 678.901 29.7493 679.428 28.817L681.967 29.8949C680.708 32.3073 679.212 33.5127 677.479 33.5127C674.22 33.5127 672.587 31.6694 672.587 27.9825V20.5151H671.113V17.5022H672.587V15.3711H676.14V17.5022L676.141 17.5023Z" fill="white"/>
<path d="M686.62 17.3782V33.5147H683.52V17.3782H686.62ZM685.061 16.2479C684.636 16.2479 684.275 16.0689 683.977 15.7094C683.677 15.3528 683.529 14.9241 683.529 14.4203C683.529 13.9115 683.677 13.4771 683.977 13.1178C684.275 12.7626 684.636 12.582 685.061 12.582C685.494 12.582 685.862 12.7626 686.166 13.1178C686.47 13.4771 686.621 13.9115 686.621 14.4203C686.621 14.9241 686.47 15.3528 686.166 15.7094C685.863 16.0688 685.494 16.2479 685.061 16.2479Z" fill="white"/>
<path d="M695.967 34.9102C694.886 34.9102 693.878 34.6926 692.935 34.2586C691.992 33.8207 691.166 33.2231 690.454 32.4617C689.742 31.6993 689.182 30.808 688.778 29.7959C688.371 28.7782 688.168 27.6927 688.168 26.5433C688.168 25.3819 688.371 24.2961 688.778 23.2826C689.182 22.2734 689.742 21.3835 690.454 20.618C691.166 19.8518 691.992 19.2499 692.935 18.8159C693.878 18.3819 694.886 18.1641 695.967 18.1641C697.03 18.1641 698.058 18.3931 699.05 18.8545C700.04 19.3149 700.904 19.9664 701.644 20.808L699.079 23.4047C698.235 22.4412 697.198 21.9573 695.967 21.9573C695.376 21.9573 694.827 22.0765 694.31 22.3122C693.795 22.5519 693.342 22.8792 692.949 23.302C692.559 23.7207 692.253 24.2087 692.03 24.7604C691.811 25.3164 691.697 25.9111 691.697 26.5432C691.697 27.1755 691.811 27.769 692.03 28.3222C692.253 28.8779 692.559 29.3618 692.949 29.7764C693.342 30.1951 693.795 30.5224 694.31 30.7594C694.827 30.9993 695.376 31.1171 695.967 31.1171C696.637 31.1171 697.265 30.9647 697.845 30.6596C698.427 30.356 698.923 29.9136 699.341 29.3424L702.123 31.6618C701.375 32.6893 700.461 33.4864 699.38 34.0575C698.303 34.6245 697.162 34.9102 695.967 34.9102Z" fill="white"/>
<path d="M708.151 34.9102C707.126 34.9102 706.124 34.7465 705.145 34.4195C704.165 34.0909 703.357 33.6347 702.717 33.0484L705.261 30.3587C705.551 30.6261 705.958 30.8356 706.482 30.9839C707.007 31.1323 707.563 31.2043 708.151 31.2043C708.684 31.2043 709.183 31.1323 709.648 30.9839C710.025 30.8618 710.315 30.7024 710.519 30.5042C710.724 30.3018 710.825 30.0121 710.825 29.6322C710.825 29.4339 710.684 29.2577 710.4 29.1097C710.117 28.9571 709.752 28.824 709.309 28.7022C708.865 28.5772 708.396 28.4594 707.902 28.3375C707.175 28.1738 706.467 27.9908 705.785 27.7815C705.101 27.5721 704.482 27.2976 703.935 26.9551C703.384 26.6114 702.948 26.1622 702.62 25.6062C702.293 25.046 702.129 24.3267 702.129 23.4392C702.129 22.0876 702.572 20.9522 703.459 20.0386C704.683 18.7895 706.367 18.1641 708.512 18.1641C709.536 18.1641 710.538 18.3292 711.517 18.6522C712.498 18.9796 713.308 19.4369 713.956 20.0276L711.402 22.7156C711.112 22.4496 710.705 22.2403 710.187 22.0946C709.667 21.9505 709.108 21.8784 708.511 21.8784C707.979 21.8784 707.484 21.9505 707.019 22.0918C706.638 22.2096 706.348 22.3691 706.151 22.5715C705.949 22.7699 705.849 23.0625 705.849 23.4392C705.849 23.6418 705.991 23.8165 706.271 23.9649C706.55 24.1132 706.91 24.2503 707.354 24.3724C707.801 24.4943 708.27 24.6164 708.761 24.7343C709.492 24.8979 710.195 25.085 710.88 25.2942C711.562 25.4995 712.18 25.7781 712.728 26.1164C713.278 26.4588 713.715 26.9096 714.043 27.4681C714.369 28.0241 714.533 28.7477 714.533 29.6322C714.533 30.9881 714.09 32.1222 713.203 33.0359C711.982 34.285 710.295 34.9101 708.151 34.9101L708.151 34.9102Z" fill="white"/>
<defs>
<linearGradient id="paint0_linear_429_2685" x1="476" y1="17" x2="227.5" y2="263.5" gradientUnits="userSpaceOnUse">
<stop stop-color="#6162FD"/>
<stop offset="1" stop-color="#737373"/>
</linearGradient>
<linearGradient id="paint1_linear_429_2685" x1="454" y1="42.5" x2="339.636" y2="182.008" gradientUnits="userSpaceOnUse">
<stop stop-color="#6162FD"/>
<stop offset="1" stop-color="#737373"/>
</linearGradient>
<linearGradient id="paint2_linear_429_2685" x1="445" y1="68.5" x2="406" y2="150.5" gradientUnits="userSpaceOnUse">
<stop stop-color="#6162FD"/>
<stop offset="1" stop-color="#737373"/>
</linearGradient>
<linearGradient id="paint3_linear_429_2685" x1="618" y1="42.8922" x2="619.116" y2="345.003" gradientUnits="userSpaceOnUse">
<stop stop-color="white" stop-opacity="0"/>
<stop offset="0.817688" stop-color="white" stop-opacity="0.817688"/>
<stop offset="1" stop-color="white" stop-opacity="0"/>
</linearGradient>
<linearGradient id="paint4_linear_429_2685" x1="606.91" y1="564.633" x2="606.91" y2="984.676" gradientUnits="userSpaceOnUse">
<stop stop-color="#7C7A7D" stop-opacity="0"/>
<stop offset="0.328543" stop-color="#7C7A7D" stop-opacity="0.05"/>
<stop offset="0.588162" stop-color="#7C7A7D" stop-opacity="0.24"/>
<stop offset="0.79819" stop-color="#7C7A7D"/>
<stop offset="1" stop-color="#E1DFE2"/>
</linearGradient>
<linearGradient id="paint5_linear_429_2685" x1="199.088" y1="198.69" x2="16.7311" y2="16.3335" gradientUnits="userSpaceOnUse">
<stop stop-color="#F4F2F5"/>
<stop offset="1" stop-color="#565457"/>
</linearGradient>
<linearGradient id="paint6_linear_429_2685" x1="115.077" y1="114.847" x2="9.67092" y2="9.4411" gradientUnits="userSpaceOnUse">
<stop stop-color="#F4F2F5"/>
<stop offset="1" stop-color="#565457"/>
</linearGradient>
<linearGradient id="paint7_linear_429_2685" x1="115.077" y1="114.847" x2="0.358244" y2="-0.357553" gradientUnits="userSpaceOnUse">
<stop stop-color="#F4F2F5"/>
<stop offset="0.574877" stop-color="#545454"/>
<stop offset="1" stop-color="#0B0B0B"/>
</linearGradient>
<linearGradient id="paint8_linear_429_2685" x1="185.503" y1="190.53" x2="-0.420872" y2="-11.6594" gradientUnits="userSpaceOnUse">
<stop stop-color="#D9D9D9"/>
<stop offset="1" stop-color="#737373" stop-opacity="0"/>
</linearGradient>
<linearGradient id="paint9_linear_429_2685" x1="607" y1="381" x2="607.074" y2="449.75" gradientUnits="userSpaceOnUse">
<stop stop-color="#D9D9D9" stop-opacity="0"/>
<stop offset="0.379042" stop-color="#D9D9D9" stop-opacity="0.6"/>
<stop offset="1" stop-color="#D9D9D9"/>
</linearGradient>
<linearGradient id="paint10_linear_429_2685" x1="607" y1="365" x2="607" y2="397" gradientUnits="userSpaceOnUse">
<stop stop-color="#D9D9D9" stop-opacity="0"/>
<stop offset="1" stop-color="#BABABA"/>
</linearGradient>
<clipPath id="clip0_429_2685">
<rect width="22" height="22" fill="white" transform="translate(788 275)"/>
</clipPath>
<clipPath id="clip1_429_2685">
<rect width="22" height="22" fill="white" transform="translate(596 140)"/>
</clipPath>
</defs>
</svg>
