<svg width="417" height="261" viewBox="0 0 417 261" fill="none" xmlns="http://www.w3.org/2000/svg">
<line x1="4.37114e-08" y1="10.5" x2="415" y2="10.5" stroke="white" stroke-opacity="0.13"/>
<line x1="4.37114e-08" y1="72.5" x2="415" y2="72.5" stroke="white" stroke-opacity="0.13"/>
<line x1="4.37114e-08" y1="134.5" x2="415" y2="134.5" stroke="white" stroke-opacity="0.13"/>
<line x1="4.37114e-08" y1="196.5" x2="415" y2="196.5" stroke="white" stroke-opacity="0.13"/>
<line x1="4.37114e-08" y1="258.5" x2="415" y2="258.5" stroke="white" stroke-opacity="0.13"/>
<path opacity="0.32" d="M14.5694 130.284L4.95502 144.175C3.68199 146.015 3 148.198 3 150.435V250C3 256.075 7.92486 261 14 261H404C410.075 261 415 256.075 415 250V29.443C415 27.2061 414.318 25.0223 413.045 23.1829L407.605 15.3227C402.839 8.43729 392.434 9.18932 388.709 16.6884L352.346 89.8778C349.473 95.6609 342.26 97.7366 336.752 94.3652L290.066 65.7865C284.813 62.571 277.944 64.2944 274.831 69.6086L236.424 135.178C232.87 141.247 224.611 142.467 219.454 137.685L185.068 105.802C181.717 102.694 176.792 101.983 172.698 104.015L145.553 117.491C141.336 119.585 136.253 118.762 132.912 115.444L107.353 90.0669C102.32 85.0702 93.9437 86.0714 90.2305 92.1135L62.7473 136.834C59.3822 142.31 52.0594 143.747 46.8748 139.948L30.1152 127.67C25.1211 124.012 18.0926 125.193 14.5694 130.284Z" fill="url(#paint0_linear_454_2955)"/>
<path d="M3 147L14.5694 130.284C18.0926 125.193 25.1211 124.012 30.1152 127.67L46.8748 139.948C52.0594 143.747 59.3822 142.31 62.7473 136.834L90.2305 92.1135C93.9437 86.0714 102.32 85.0702 107.353 90.067L132.912 115.444C136.253 118.762 141.336 119.585 145.553 117.491L172.698 104.015C176.792 101.983 181.717 102.694 185.069 105.802L219.454 137.685C224.611 142.467 232.87 141.247 236.424 135.178L274.831 69.6086C277.944 64.2944 284.813 62.571 290.066 65.7865L336.752 94.3652C342.26 97.7366 349.473 95.6609 352.346 89.8778L388.709 16.6884C392.434 9.18932 402.839 8.43729 407.605 15.3227L415 26.0077" stroke="#6162FD" stroke-width="4"/>
<circle cx="370.5" cy="51.5" r="6.5" fill="white" stroke="#6162FD" stroke-width="4"/>
<line opacity="0.36" x1="54" y1="149" x2="54" y2="257" stroke="#6162FD" stroke-width="4" stroke-linecap="round" stroke-dasharray="8 8"/>
<line opacity="0.36" x1="139" y1="125" x2="139" y2="257" stroke="#6162FD" stroke-width="4" stroke-linecap="round" stroke-dasharray="8 8"/>
<line opacity="0.36" x1="224" y1="143" x2="224" y2="257" stroke="#6162FD" stroke-width="4" stroke-linecap="round" stroke-dasharray="8 8"/>
<line opacity="0.36" x1="309" y1="80" x2="309" y2="257" stroke="#6162FD" stroke-width="4" stroke-linecap="round" stroke-dasharray="8 8"/>
<line opacity="0.36" x1="394" y1="13" x2="394" y2="257" stroke="#6162FD" stroke-width="4" stroke-linecap="round" stroke-dasharray="8 8"/>
<defs>
<linearGradient id="paint0_linear_454_2955" x1="209" y1="94" x2="209" y2="261" gradientUnits="userSpaceOnUse">
<stop stop-color="#6162FD"/>
<stop offset="1" stop-color="#6162FD" stop-opacity="0"/>
</linearGradient>
</defs>
</svg>
